M48
;Layer_Color=9474304
;FILE_FORMAT=4:4
METRIC,LZ
;TYPE=PLATED
T1F00S00C0.3048
T2F00S00C0.8000
T3F00S00C0.9500
T5F00S00C3.0000
%
T01
X0124587Y00496824
X01258062
X01271016Y0049657
X01284478Y00496316
X01326642Y00508508
X01308608Y0058674
Y00600456
X01231138Y00576834
X01218692
X01214882Y00625602
X01229614Y00625094
X01253744Y006858
X01252474Y00708914
X01262634Y00729488
X01262888Y00749554
X01269492Y00789432
X0133858Y00773938
Y00757428
Y00743458
X01169162Y007493
Y0076327
Y00776224
Y00733806
X01112266Y00818388
X01067562Y0081407
Y00800862
X01031494Y00838708
X0103632Y00884174
X01059688Y00883666
X01313688Y00818388
T02
X01228344Y0052197
X01253744
X01279144
X01266444Y0054737
X01241044
X01215644
X01125474
X01100074
X01074674
X01087374Y0052197
X01112774
X01138174
X01067054Y0063246
X01041654
Y0065786
X01067054
Y0068326
X01041654
Y0070866
X01067054
Y0073406
X01041654
X01044702Y00862076
X01070102
X01019302
T03
X01019302Y00816864
X01044702
T05
X01196594Y0045847
X01298194
X01157224
X01055624
M30
