G04*
G04 #@! TF.GenerationSoftware,Altium Limited,Altium Designer,18.0.12 (696)*
G04*
G04 Layer_Color=16711935*
%FSLAX44Y44*%
%MOMM*%
G71*
G01*
G75*
%ADD50C,0.1000*%
D50*
X1285304Y611504D02*
X1293304D01*
X1285304Y595504D02*
X1293304D01*
Y611504D01*
X1285304Y595504D02*
Y611504D01*
X1217740D02*
X1225740D01*
X1217740Y595504D02*
X1225740D01*
Y611504D01*
X1217740Y595504D02*
Y611504D01*
X1190498Y590456D02*
Y610456D01*
X1203198Y590456D02*
Y610456D01*
X1190498Y590456D02*
X1203198D01*
X1190498Y610456D02*
X1203198D01*
X1320356Y784988D02*
X1328356D01*
X1320356Y800988D02*
X1328356D01*
X1320356Y784988D02*
Y800988D01*
X1328356Y784988D02*
Y800988D01*
X1320356Y679578D02*
X1328356D01*
X1320356Y695578D02*
X1328356D01*
X1320356Y679578D02*
Y695578D01*
X1328356Y679578D02*
Y695578D01*
X1320356Y714122D02*
X1328356D01*
X1320356Y730122D02*
X1328356D01*
X1320356Y714122D02*
Y730122D01*
X1328356Y714122D02*
Y730122D01*
X1320864Y593724D02*
X1328864D01*
X1320864Y577724D02*
X1328864D01*
Y593724D01*
X1320864Y577724D02*
Y593724D01*
X1320558Y819048D02*
X1328558D01*
X1320558Y835048D02*
X1328558D01*
X1320558Y819048D02*
Y835048D01*
X1328558Y819048D02*
Y835048D01*
X1096276Y819048D02*
X1104276D01*
X1096276Y835048D02*
X1104276D01*
X1096276Y819048D02*
Y835048D01*
X1104276Y819048D02*
Y835048D01*
X1121220Y592320D02*
X1129220D01*
X1121220Y608320D02*
X1129220D01*
X1121220Y592320D02*
Y608320D01*
X1129220Y592320D02*
Y608320D01*
X1144276Y608320D02*
X1152276D01*
X1144276Y592320D02*
X1152276D01*
Y608320D01*
X1144276Y592320D02*
Y608320D01*
M02*
