G04*
G04 #@! TF.GenerationSoftware,Altium Limited,Altium Designer,18.0.12 (696)*
G04*
G04 Layer_Color=32768*
%FSLAX44Y44*%
%MOMM*%
G71*
G01*
G75*
%ADD50C,0.1000*%
%ADD51C,0.0500*%
D50*
X1289304Y599504D02*
Y607504D01*
X1285304Y603504D02*
X1293304D01*
X1221740Y599504D02*
Y607504D01*
X1217740Y603504D02*
X1225740D01*
X1191848Y600456D02*
X1201848D01*
X1196848Y595456D02*
Y605456D01*
X1324356Y788988D02*
Y796988D01*
X1320356Y792988D02*
X1328356D01*
X1324356Y683578D02*
Y691578D01*
X1320356Y687578D02*
X1328356D01*
X1324356Y718122D02*
Y726122D01*
X1320356Y722122D02*
X1328356D01*
X1324864Y581724D02*
Y589724D01*
X1320864Y585724D02*
X1328864D01*
X1324558Y823048D02*
Y831048D01*
X1320558Y827048D02*
X1328558D01*
X1100276Y823048D02*
Y831048D01*
X1096276Y827048D02*
X1104276D01*
X1125220Y596320D02*
Y604320D01*
X1121220Y600320D02*
X1129220D01*
X1148276Y596320D02*
Y604320D01*
X1144276Y600320D02*
X1152276D01*
D51*
X1282304Y618004D02*
X1296304D01*
X1282304Y589004D02*
X1296304D01*
Y618004D01*
X1282304Y589004D02*
Y618004D01*
X1214740D02*
X1228740D01*
X1214740Y589004D02*
X1228740D01*
Y618004D01*
X1214740Y589004D02*
Y618004D01*
X1187348Y583456D02*
Y617456D01*
X1206348Y583456D02*
Y617456D01*
X1187348Y583456D02*
X1206348D01*
X1187348Y617456D02*
X1206348D01*
X1317356Y778488D02*
X1331356D01*
X1317356Y807488D02*
X1331356D01*
X1317356Y778488D02*
Y807488D01*
X1331356Y778488D02*
Y807488D01*
X1317356Y673078D02*
X1331356D01*
X1317356Y702078D02*
X1331356D01*
X1317356Y673078D02*
Y702078D01*
X1331356Y673078D02*
Y702078D01*
X1317356Y707622D02*
X1331356D01*
X1317356Y736622D02*
X1331356D01*
X1317356Y707622D02*
Y736622D01*
X1331356Y707622D02*
Y736622D01*
X1317864Y600224D02*
X1331864D01*
X1317864Y571224D02*
X1331864D01*
Y600224D01*
X1317864Y571224D02*
Y600224D01*
X1317558Y812548D02*
X1331558D01*
X1317558Y841548D02*
X1331558D01*
X1317558Y812548D02*
Y841548D01*
X1331558Y812548D02*
Y841548D01*
X1093276Y812548D02*
X1107276D01*
X1093276Y841548D02*
X1107276D01*
X1093276Y812548D02*
Y841548D01*
X1107276Y812548D02*
Y841548D01*
X1118220Y585820D02*
X1132220D01*
X1118220Y614820D02*
X1132220D01*
X1118220Y585820D02*
Y614820D01*
X1132220Y585820D02*
Y614820D01*
X1141276D02*
X1155276D01*
X1141276Y585820D02*
X1155276D01*
Y614820D01*
X1141276Y585820D02*
Y614820D01*
M02*
