G04*
G04 #@! TF.GenerationSoftware,Altium Limited,Altium Designer,18.0.12 (696)*
G04*
G04 Layer_Color=8388736*
%FSLAX44Y44*%
%MOMM*%
G71*
G01*
G75*
%ADD26R,2.7032X1.6032*%
%ADD27R,1.6032X2.7032*%
%ADD28R,1.7032X1.5032*%
%ADD29R,1.1176X0.9652*%
%ADD30R,1.0532X0.8532*%
%ADD31R,1.7032X1.2032*%
%ADD32R,0.9652X1.1176*%
%ADD33R,1.0135X0.5029*%
%ADD34R,14.2032X2.2032*%
%ADD35C,1.8032*%
%ADD36C,2.2032*%
%ADD37R,2.2032X2.2032*%
%ADD38R,1.8032X1.8032*%
%ADD39C,3.2032*%
D26*
X1294130Y709620D02*
D03*
Y689620D02*
D03*
X1139130Y669620D02*
D03*
X1294130Y769620D02*
D03*
Y789620D02*
D03*
Y809620D02*
D03*
Y729620D02*
D03*
Y749620D02*
D03*
X1139130Y729620D02*
D03*
Y689620D02*
D03*
Y709620D02*
D03*
X1294130Y669620D02*
D03*
X1139130Y749620D02*
D03*
Y769620D02*
D03*
Y789620D02*
D03*
Y809620D02*
D03*
D27*
X1166630Y657120D02*
D03*
X1186630D02*
D03*
X1206630D02*
D03*
X1266630D02*
D03*
X1246630D02*
D03*
X1226630D02*
D03*
D28*
X1100582Y861720D02*
D03*
Y880720D02*
D03*
X1324610Y861720D02*
D03*
Y880720D02*
D03*
X1324864Y618388D02*
D03*
Y637388D02*
D03*
D29*
X1248156Y574548D02*
D03*
X1263396D02*
D03*
D30*
X1289304Y612004D02*
D03*
Y595004D02*
D03*
X1221740Y612004D02*
D03*
Y595004D02*
D03*
X1324356Y784488D02*
D03*
Y801488D02*
D03*
Y679078D02*
D03*
Y696078D02*
D03*
Y713622D02*
D03*
Y730622D02*
D03*
X1324864Y594224D02*
D03*
Y577224D02*
D03*
X1324558Y818548D02*
D03*
Y835548D02*
D03*
X1100276Y818548D02*
D03*
Y835548D02*
D03*
X1125220Y591820D02*
D03*
Y608820D02*
D03*
X1148276Y608820D02*
D03*
Y591820D02*
D03*
D31*
X1196848Y589206D02*
D03*
Y611706D02*
D03*
D32*
X1324356Y765810D02*
D03*
Y750570D02*
D03*
X1171448Y607704D02*
D03*
Y592464D02*
D03*
D33*
X1270533Y611937D02*
D03*
X1241527D02*
D03*
Y591947D02*
D03*
X1270533D02*
D03*
Y601929D02*
D03*
X1241527D02*
D03*
D34*
X1097788Y327660D02*
D03*
X1255776D02*
D03*
D35*
X1067054Y632460D02*
D03*
X1041654D02*
D03*
X1067054Y657860D02*
D03*
X1041654D02*
D03*
X1067054Y683260D02*
D03*
X1041654D02*
D03*
X1067054Y708660D02*
D03*
X1041654D02*
D03*
X1067054Y734060D02*
D03*
X1041654D02*
D03*
X1138174Y521970D02*
D03*
X1125474Y547370D02*
D03*
X1112774Y521970D02*
D03*
X1100074Y547370D02*
D03*
X1087374Y521970D02*
D03*
X1074674Y547370D02*
D03*
X1279144Y521970D02*
D03*
X1266444Y547370D02*
D03*
X1253744Y521970D02*
D03*
X1241044Y547370D02*
D03*
X1228344Y521970D02*
D03*
X1215644Y547370D02*
D03*
X1044702Y862076D02*
D03*
X1019302D02*
D03*
D36*
X1044702Y816864D02*
D03*
D37*
X1019302D02*
D03*
D38*
X1070102Y862076D02*
D03*
D39*
X1157224Y458470D02*
D03*
X1055624D02*
D03*
X1298194D02*
D03*
X1196594D02*
D03*
M02*
