G04*
G04 #@! TF.GenerationSoftware,Altium Limited,Altium Designer,18.0.12 (696)*
G04*
G04 Layer_Physical_Order=2*
G04 Layer_Color=16711680*
%FSLAX44Y44*%
%MOMM*%
G71*
G01*
G75*
%ADD11C,0.2540*%
%ADD41R,14.0000X2.0000*%
%ADD42C,1.6000*%
%ADD43C,2.0000*%
%ADD44R,2.0000X2.0000*%
%ADD45R,1.6000X1.6000*%
%ADD46C,0.5080*%
%ADD47C,3.0000*%
G36*
X1052710Y860825D02*
X1052845Y858729D01*
X1052973Y857806D01*
X1053141Y856964D01*
X1053348Y856205D01*
X1053596Y855529D01*
X1053884Y854935D01*
X1054212Y854424D01*
X1054579Y853995D01*
X1052783Y852199D01*
X1052354Y852566D01*
X1051843Y852894D01*
X1051249Y853182D01*
X1050573Y853430D01*
X1049814Y853637D01*
X1048972Y853805D01*
X1048048Y853933D01*
X1045953Y854069D01*
X1044782Y854076D01*
X1052702Y861996D01*
X1052710Y860825D01*
D02*
G37*
G36*
X1072401Y854081D02*
X1072185Y854005D01*
X1071994Y853878D01*
X1071829Y853700D01*
X1071690Y853472D01*
X1071575Y853192D01*
X1071486Y852862D01*
X1071423Y852481D01*
X1071385Y852049D01*
X1071372Y851566D01*
X1068832D01*
X1068819Y852049D01*
X1068781Y852481D01*
X1068718Y852862D01*
X1068629Y853192D01*
X1068514Y853472D01*
X1068375Y853700D01*
X1068210Y853878D01*
X1068019Y854005D01*
X1067803Y854081D01*
X1067562Y854107D01*
X1072642D01*
X1072401Y854081D01*
D02*
G37*
G36*
X1337742Y894268D02*
X1339565Y893513D01*
X1341130Y892312D01*
X1342331Y890747D01*
X1343086Y888924D01*
X1343329Y887081D01*
X1343306Y886968D01*
X1343306Y778120D01*
X1342036Y777738D01*
X1341120Y778351D01*
Y773938D01*
Y769526D01*
X1342036Y770138D01*
X1343306Y769756D01*
Y761610D01*
X1342036Y761228D01*
X1341120Y761841D01*
Y757428D01*
Y753016D01*
X1342036Y753628D01*
X1343306Y753246D01*
Y747640D01*
X1342036Y747258D01*
X1341120Y747870D01*
Y743458D01*
Y739045D01*
X1342036Y739658D01*
X1343306Y739276D01*
X1343306Y317500D01*
X1343329Y317387D01*
X1343086Y315544D01*
X1342331Y313721D01*
X1341130Y312156D01*
X1339565Y310955D01*
X1337742Y310200D01*
X1335898Y309957D01*
X1335786Y309979D01*
X1012952D01*
X1012840Y309957D01*
X1010996Y310200D01*
X1009173Y310955D01*
X1007608Y312156D01*
X1006407Y313721D01*
X1005652Y315544D01*
X1005409Y317388D01*
X1005432Y317500D01*
Y327660D01*
X1005431Y327660D01*
X1005432Y886968D01*
X1005409Y887081D01*
X1005652Y888924D01*
X1006407Y890747D01*
X1007608Y892312D01*
X1009173Y893513D01*
X1010996Y894268D01*
X1012840Y894511D01*
X1012952Y894489D01*
X1121833D01*
X1122934Y894080D01*
X1122937Y893219D01*
X1123156Y824467D01*
X1122259Y823568D01*
X1115944D01*
X1114744Y824370D01*
X1112266Y824862D01*
X1109788Y824370D01*
X1107688Y822966D01*
X1106284Y820866D01*
X1105792Y818388D01*
X1106271Y815978D01*
X1106216Y815899D01*
X1105087Y815367D01*
X1075282Y845171D01*
Y850266D01*
X1081912D01*
Y873886D01*
X1058292D01*
Y859011D01*
X1057022Y858314D01*
X1056954Y858357D01*
X1056781Y858630D01*
X1056712Y859122D01*
X1056593Y860963D01*
X1056587Y861873D01*
X1056614Y862076D01*
X1056208Y865159D01*
X1055018Y868032D01*
X1053125Y870499D01*
X1050658Y872392D01*
X1047785Y873582D01*
X1044702Y873988D01*
X1041619Y873582D01*
X1038746Y872392D01*
X1036279Y870499D01*
X1034386Y868032D01*
X1033196Y865159D01*
X1032790Y862076D01*
X1033196Y858993D01*
X1034386Y856120D01*
X1036279Y853653D01*
X1038746Y851760D01*
X1041619Y850570D01*
X1044702Y850164D01*
X1044905Y850191D01*
X1045815Y850185D01*
X1047656Y850066D01*
X1048326Y849973D01*
X1048920Y849854D01*
X1049390Y849726D01*
X1049730Y849601D01*
X1049941Y849499D01*
X1049977Y849476D01*
X1052730Y846723D01*
Y837946D01*
X1053125Y835964D01*
X1054248Y834284D01*
X1068092Y820439D01*
X1067675Y819503D01*
X1067498Y819237D01*
X1065580Y818855D01*
X1063900Y817732D01*
X1063149Y816610D01*
X1067562D01*
Y814070D01*
X1070102D01*
Y809658D01*
X1071225Y810407D01*
X1072347Y812088D01*
X1072729Y814006D01*
X1072995Y814183D01*
X1073931Y814600D01*
X1102507Y786023D01*
X1104188Y784901D01*
X1106170Y784507D01*
X1200291D01*
X1256371Y728426D01*
X1256652Y727010D01*
X1258056Y724910D01*
X1260156Y723506D01*
X1262634Y723014D01*
X1263331Y723152D01*
X1264313Y722346D01*
Y718679D01*
X1258590Y712957D01*
X1257326Y713082D01*
X1257052Y713492D01*
X1254952Y714896D01*
X1252474Y715388D01*
X1249996Y714896D01*
X1248796Y714093D01*
X1079652D01*
X1079608Y714103D01*
X1079372Y714184D01*
X1079024Y714341D01*
X1078577Y714587D01*
X1078047Y714927D01*
X1077477Y715339D01*
X1076023Y716549D01*
X1075549Y716989D01*
X1075477Y717083D01*
X1075308Y717213D01*
X1075229Y717286D01*
X1075145Y717338D01*
X1073010Y718976D01*
X1070137Y720166D01*
X1067054Y720572D01*
X1063971Y720166D01*
X1061098Y718976D01*
X1058631Y717083D01*
X1056738Y714616D01*
X1055548Y711743D01*
X1055142Y708660D01*
X1055548Y705577D01*
X1056738Y702704D01*
X1058631Y700237D01*
X1061098Y698344D01*
X1063971Y697154D01*
X1067054Y696748D01*
X1070137Y697154D01*
X1073010Y698344D01*
X1075477Y700237D01*
X1075670Y700489D01*
X1075702Y700510D01*
X1077180Y702003D01*
X1077751Y702507D01*
X1078296Y702939D01*
X1078774Y703270D01*
X1079173Y703506D01*
X1079483Y703653D01*
X1079690Y703726D01*
X1079727Y703735D01*
X1247571D01*
X1248098Y702465D01*
X1109111Y563479D01*
X1107989Y561798D01*
X1107595Y559816D01*
Y556485D01*
X1106324Y555859D01*
X1105389Y556577D01*
X1102825Y557639D01*
X1102614Y557667D01*
Y547370D01*
Y537073D01*
X1102825Y537101D01*
X1105389Y538163D01*
X1106324Y538881D01*
X1107595Y538255D01*
Y534610D01*
X1107585Y534568D01*
X1107508Y534347D01*
X1107356Y534018D01*
X1107115Y533595D01*
X1106778Y533091D01*
X1106370Y532552D01*
X1105153Y531165D01*
X1104513Y530518D01*
X1104351Y530393D01*
X1102458Y527926D01*
X1101268Y525053D01*
X1100862Y521970D01*
X1101268Y518887D01*
X1102458Y516014D01*
X1104351Y513547D01*
X1106818Y511654D01*
X1109691Y510464D01*
X1112774Y510058D01*
X1115857Y510464D01*
X1118730Y511654D01*
X1121197Y513547D01*
X1123090Y516014D01*
X1124280Y518887D01*
X1124686Y521970D01*
X1124280Y525053D01*
X1123090Y527926D01*
X1121197Y530393D01*
X1121034Y530518D01*
X1120396Y531165D01*
X1119178Y532552D01*
X1118770Y533091D01*
X1118434Y533594D01*
X1118192Y534018D01*
X1118040Y534347D01*
X1117962Y534568D01*
X1117953Y534610D01*
Y536819D01*
X1119093Y537380D01*
X1119518Y537054D01*
X1122391Y535864D01*
X1125474Y535458D01*
X1128557Y535864D01*
X1131430Y537054D01*
X1133897Y538947D01*
X1134022Y539109D01*
X1134669Y539748D01*
X1136056Y540966D01*
X1136595Y541374D01*
X1137098Y541711D01*
X1137522Y541952D01*
X1137851Y542104D01*
X1138073Y542182D01*
X1138114Y542191D01*
X1144919D01*
X1182263Y504846D01*
X1183944Y503723D01*
X1185926Y503329D01*
X1322964D01*
X1324164Y502526D01*
X1326642Y502034D01*
X1329120Y502526D01*
X1331220Y503930D01*
X1332624Y506030D01*
X1333116Y508508D01*
X1332624Y510986D01*
X1331220Y513086D01*
X1329120Y514490D01*
X1326642Y514982D01*
X1324164Y514490D01*
X1322964Y513688D01*
X1289111D01*
X1288549Y514827D01*
X1289460Y516014D01*
X1290650Y518887D01*
X1291056Y521970D01*
X1290650Y525053D01*
X1289460Y527926D01*
X1287567Y530393D01*
X1285100Y532286D01*
X1282227Y533476D01*
X1279144Y533882D01*
X1276061Y533476D01*
X1273188Y532286D01*
X1270721Y530393D01*
X1268828Y527926D01*
X1267638Y525053D01*
X1267232Y521970D01*
X1267638Y518887D01*
X1268828Y516014D01*
X1269739Y514827D01*
X1269177Y513688D01*
X1263710D01*
X1263149Y514827D01*
X1264060Y516014D01*
X1265250Y518887D01*
X1265656Y521970D01*
X1265250Y525053D01*
X1264060Y527926D01*
X1262167Y530393D01*
X1262004Y530518D01*
X1261366Y531165D01*
X1260148Y532552D01*
X1259740Y533091D01*
X1259404Y533594D01*
X1259162Y534018D01*
X1259010Y534347D01*
X1258932Y534568D01*
X1258923Y534610D01*
Y536819D01*
X1260063Y537380D01*
X1260488Y537054D01*
X1263361Y535864D01*
X1266444Y535458D01*
X1269527Y535864D01*
X1272400Y537054D01*
X1274867Y538947D01*
X1276760Y541414D01*
X1277950Y544287D01*
X1278356Y547370D01*
X1277950Y550453D01*
X1276760Y553326D01*
X1274867Y555793D01*
X1272400Y557686D01*
X1269527Y558876D01*
X1266444Y559282D01*
X1263361Y558876D01*
X1260488Y557686D01*
X1260063Y557360D01*
X1258923Y557921D01*
Y682122D01*
X1259726Y683322D01*
X1260218Y685800D01*
X1259726Y688278D01*
X1258322Y690378D01*
X1256222Y691782D01*
X1254252Y692173D01*
X1253756Y693473D01*
X1273155Y712871D01*
X1274277Y714552D01*
X1274671Y716534D01*
X1274671Y716534D01*
Y785754D01*
X1275474Y786954D01*
X1275966Y789432D01*
X1275474Y791910D01*
X1274070Y794010D01*
X1271970Y795414D01*
X1269492Y795906D01*
X1267014Y795414D01*
X1264914Y794010D01*
X1263510Y791910D01*
X1263018Y789432D01*
X1263510Y786954D01*
X1264313Y785754D01*
Y757251D01*
X1263043Y756724D01*
X1211179Y808588D01*
X1209498Y809711D01*
X1207516Y810106D01*
X1110347D01*
X1109245Y811208D01*
X1109777Y812338D01*
X1109856Y812393D01*
X1112266Y811914D01*
X1114744Y812406D01*
X1115944Y813208D01*
X1310010D01*
X1311210Y812406D01*
X1313688Y811914D01*
X1316166Y812406D01*
X1318266Y813810D01*
X1319670Y815910D01*
X1320162Y818388D01*
X1319670Y820866D01*
X1318266Y822966D01*
X1316166Y824370D01*
X1313688Y824862D01*
X1311210Y824370D01*
X1310132Y823649D01*
X1308862Y823961D01*
Y893219D01*
X1308862Y894080D01*
X1309963Y894489D01*
X1335786D01*
X1335898Y894511D01*
X1337742Y894268D01*
D02*
G37*
G36*
X1311874Y816610D02*
X1311765Y816706D01*
X1311638Y816793D01*
X1311493Y816869D01*
X1311329Y816935D01*
X1311148Y816991D01*
X1310948Y817037D01*
X1310729Y817072D01*
X1310493Y817098D01*
X1309964Y817118D01*
Y819658D01*
X1310237Y819663D01*
X1310729Y819704D01*
X1310948Y819739D01*
X1311148Y819785D01*
X1311329Y819841D01*
X1311493Y819907D01*
X1311638Y819983D01*
X1311765Y820070D01*
X1311874Y820166D01*
Y816610D01*
D02*
G37*
G36*
X1114189Y820070D02*
X1114316Y819983D01*
X1114461Y819907D01*
X1114624Y819841D01*
X1114806Y819785D01*
X1115006Y819739D01*
X1115225Y819704D01*
X1115462Y819678D01*
X1115990Y819658D01*
Y817118D01*
X1115716Y817113D01*
X1115225Y817072D01*
X1115006Y817037D01*
X1114806Y816991D01*
X1114624Y816935D01*
X1114461Y816869D01*
X1114316Y816793D01*
X1114189Y816706D01*
X1114080Y816610D01*
Y820166D01*
X1114189Y820070D01*
D02*
G37*
G36*
X1271173Y787509D02*
X1271087Y787382D01*
X1271011Y787237D01*
X1270945Y787074D01*
X1270889Y786892D01*
X1270843Y786692D01*
X1270808Y786473D01*
X1270782Y786236D01*
X1270762Y785708D01*
X1268222D01*
X1268217Y785982D01*
X1268176Y786473D01*
X1268141Y786692D01*
X1268095Y786892D01*
X1268039Y787074D01*
X1267973Y787237D01*
X1267897Y787382D01*
X1267811Y787509D01*
X1267714Y787618D01*
X1271270D01*
X1271173Y787509D01*
D02*
G37*
G36*
X1261350Y752896D02*
X1261726Y752577D01*
X1261906Y752447D01*
X1262079Y752338D01*
X1262248Y752249D01*
X1262410Y752180D01*
X1262567Y752131D01*
X1262718Y752103D01*
X1262863Y752094D01*
X1260348Y749579D01*
X1260340Y749725D01*
X1260311Y749875D01*
X1260262Y750032D01*
X1260193Y750194D01*
X1260104Y750362D01*
X1259995Y750536D01*
X1259865Y750716D01*
X1259716Y750901D01*
X1259357Y751289D01*
X1261153Y753085D01*
X1261350Y752896D01*
D02*
G37*
G36*
X1261096Y732830D02*
X1261472Y732511D01*
X1261652Y732381D01*
X1261825Y732272D01*
X1261994Y732183D01*
X1262156Y732114D01*
X1262313Y732065D01*
X1262464Y732037D01*
X1262609Y732028D01*
X1260094Y729513D01*
X1260086Y729659D01*
X1260057Y729809D01*
X1260008Y729966D01*
X1259939Y730128D01*
X1259850Y730296D01*
X1259741Y730470D01*
X1259611Y730650D01*
X1259462Y730835D01*
X1259103Y731223D01*
X1260899Y733019D01*
X1261096Y732830D01*
D02*
G37*
G36*
X1250660Y707136D02*
X1250551Y707233D01*
X1250424Y707319D01*
X1250279Y707395D01*
X1250116Y707461D01*
X1249934Y707517D01*
X1249734Y707563D01*
X1249515Y707598D01*
X1249278Y707624D01*
X1248750Y707644D01*
Y710184D01*
X1249024Y710189D01*
X1249515Y710230D01*
X1249734Y710265D01*
X1249934Y710311D01*
X1250116Y710367D01*
X1250279Y710433D01*
X1250424Y710509D01*
X1250551Y710595D01*
X1250660Y710692D01*
Y707136D01*
D02*
G37*
G36*
X1073458Y713630D02*
X1075094Y712269D01*
X1075859Y711716D01*
X1076589Y711248D01*
X1077283Y710865D01*
X1077942Y710567D01*
X1078566Y710354D01*
X1079154Y710227D01*
X1079707Y710184D01*
X1079789Y707644D01*
X1079217Y707600D01*
X1078619Y707468D01*
X1077997Y707248D01*
X1077349Y706940D01*
X1076677Y706544D01*
X1075980Y706060D01*
X1075258Y705488D01*
X1074511Y704828D01*
X1072942Y703244D01*
X1072587Y714439D01*
X1073458Y713630D01*
D02*
G37*
G36*
X1255425Y683877D02*
X1255339Y683750D01*
X1255263Y683605D01*
X1255197Y683441D01*
X1255141Y683260D01*
X1255095Y683059D01*
X1255060Y682841D01*
X1255034Y682605D01*
X1255014Y682076D01*
X1252474D01*
X1252469Y682349D01*
X1252428Y682841D01*
X1252393Y683059D01*
X1252347Y683260D01*
X1252291Y683441D01*
X1252225Y683605D01*
X1252149Y683750D01*
X1252063Y683877D01*
X1251966Y683986D01*
X1255522D01*
X1255425Y683877D01*
D02*
G37*
G36*
X1247371Y685292D02*
X1247762Y683322D01*
X1248565Y682122D01*
Y556485D01*
X1247294Y555859D01*
X1246359Y556577D01*
X1243795Y557639D01*
X1243584Y557667D01*
Y547370D01*
Y537073D01*
X1243795Y537101D01*
X1246359Y538163D01*
X1247294Y538881D01*
X1248565Y538255D01*
Y534610D01*
X1248555Y534568D01*
X1248478Y534347D01*
X1248326Y534018D01*
X1248085Y533595D01*
X1247748Y533091D01*
X1247340Y532552D01*
X1246123Y531165D01*
X1245483Y530518D01*
X1245321Y530393D01*
X1243428Y527926D01*
X1242238Y525053D01*
X1241832Y521970D01*
X1242238Y518887D01*
X1243428Y516014D01*
X1244339Y514827D01*
X1243777Y513688D01*
X1238310D01*
X1237749Y514827D01*
X1238660Y516014D01*
X1239850Y518887D01*
X1240256Y521970D01*
X1239850Y525053D01*
X1238660Y527926D01*
X1236767Y530393D01*
X1234300Y532286D01*
X1231427Y533476D01*
X1228344Y533882D01*
X1225261Y533476D01*
X1222388Y532286D01*
X1219921Y530393D01*
X1218028Y527926D01*
X1216838Y525053D01*
X1216432Y521970D01*
X1216838Y518887D01*
X1218028Y516014D01*
X1218939Y514827D01*
X1218378Y513688D01*
X1188071D01*
X1150726Y551032D01*
X1149046Y552155D01*
X1147064Y552550D01*
X1138114D01*
X1138073Y552559D01*
X1137851Y552636D01*
X1137522Y552788D01*
X1137098Y553029D01*
X1136595Y553366D01*
X1136056Y553774D01*
X1134669Y554991D01*
X1134022Y555630D01*
X1133897Y555793D01*
X1131430Y557686D01*
X1128557Y558876D01*
X1125474Y559282D01*
X1122391Y558876D01*
X1119940Y557861D01*
X1119220Y558937D01*
X1246071Y685788D01*
X1247371Y685292D01*
D02*
G37*
G36*
X1132021Y552147D02*
X1133598Y550762D01*
X1134342Y550199D01*
X1135056Y549723D01*
X1135739Y549333D01*
X1136393Y549030D01*
X1137016Y548813D01*
X1137609Y548683D01*
X1138173Y548640D01*
Y546100D01*
X1137609Y546057D01*
X1137016Y545927D01*
X1136393Y545710D01*
X1135739Y545407D01*
X1135056Y545018D01*
X1134342Y544541D01*
X1133598Y543978D01*
X1132021Y542593D01*
X1131187Y541770D01*
Y552970D01*
X1132021Y552147D01*
D02*
G37*
G36*
X1255057Y534105D02*
X1255187Y533512D01*
X1255404Y532889D01*
X1255707Y532235D01*
X1256096Y531552D01*
X1256573Y530838D01*
X1257136Y530094D01*
X1258521Y528517D01*
X1259344Y527683D01*
X1248144D01*
X1248967Y528517D01*
X1250352Y530094D01*
X1250915Y530838D01*
X1251392Y531552D01*
X1251781Y532235D01*
X1252084Y532889D01*
X1252301Y533512D01*
X1252431Y534105D01*
X1252474Y534669D01*
X1255014D01*
X1255057Y534105D01*
D02*
G37*
G36*
X1114087D02*
X1114217Y533512D01*
X1114434Y532889D01*
X1114737Y532235D01*
X1115126Y531552D01*
X1115603Y530838D01*
X1116166Y530094D01*
X1117551Y528517D01*
X1118374Y527683D01*
X1107174D01*
X1107997Y528517D01*
X1109382Y530094D01*
X1109945Y530838D01*
X1110422Y531552D01*
X1110811Y532235D01*
X1111114Y532889D01*
X1111331Y533512D01*
X1111461Y534105D01*
X1111504Y534669D01*
X1114044D01*
X1114087Y534105D01*
D02*
G37*
G36*
X1324828Y506730D02*
X1324719Y506827D01*
X1324592Y506913D01*
X1324447Y506989D01*
X1324283Y507055D01*
X1324102Y507111D01*
X1323902Y507157D01*
X1323683Y507192D01*
X1323447Y507218D01*
X1322918Y507238D01*
Y509778D01*
X1323192Y509783D01*
X1323683Y509824D01*
X1323902Y509859D01*
X1324102Y509905D01*
X1324283Y509961D01*
X1324447Y510027D01*
X1324592Y510103D01*
X1324719Y510190D01*
X1324828Y510286D01*
Y506730D01*
D02*
G37*
%LPC*%
G36*
X1038860Y888587D02*
Y886714D01*
X1040732D01*
X1039983Y887837D01*
X1038860Y888587D01*
D02*
G37*
G36*
X1033780D02*
X1032657Y887837D01*
X1031908Y886714D01*
X1033780D01*
Y888587D01*
D02*
G37*
G36*
X1062228Y888079D02*
Y886206D01*
X1064100D01*
X1063351Y887328D01*
X1062228Y888079D01*
D02*
G37*
G36*
X1057148D02*
X1056025Y887328D01*
X1055275Y886206D01*
X1057148D01*
Y888079D01*
D02*
G37*
G36*
X1040732Y881634D02*
X1038860D01*
Y879762D01*
X1039983Y880511D01*
X1040732Y881634D01*
D02*
G37*
G36*
X1033780D02*
X1031908D01*
X1032657Y880511D01*
X1033780Y879762D01*
Y881634D01*
D02*
G37*
G36*
X1064100Y881126D02*
X1062228D01*
Y879253D01*
X1063351Y880004D01*
X1064100Y881126D01*
D02*
G37*
G36*
X1057148D02*
X1055275D01*
X1056025Y880004D01*
X1057148Y879253D01*
Y881126D01*
D02*
G37*
G36*
X1021842Y872373D02*
Y864616D01*
X1029599D01*
X1029571Y864827D01*
X1028509Y867392D01*
X1026819Y869593D01*
X1024617Y871283D01*
X1022054Y872345D01*
X1021842Y872373D01*
D02*
G37*
G36*
X1016762D02*
X1016551Y872345D01*
X1013987Y871283D01*
X1011785Y869593D01*
X1010095Y867392D01*
X1009033Y864827D01*
X1009005Y864616D01*
X1016762D01*
Y872373D01*
D02*
G37*
G36*
X1029599Y859536D02*
X1021842D01*
Y851779D01*
X1022054Y851807D01*
X1024617Y852869D01*
X1026819Y854559D01*
X1028509Y856760D01*
X1029571Y859324D01*
X1029599Y859536D01*
D02*
G37*
G36*
X1016762D02*
X1009005D01*
X1009033Y859324D01*
X1010095Y856760D01*
X1011785Y854559D01*
X1013987Y852869D01*
X1016551Y851807D01*
X1016762Y851779D01*
Y859536D01*
D02*
G37*
G36*
X1034034Y843120D02*
Y841248D01*
X1035907D01*
X1035156Y842371D01*
X1034034Y843120D01*
D02*
G37*
G36*
X1028954D02*
X1027831Y842371D01*
X1027082Y841248D01*
X1028954D01*
Y843120D01*
D02*
G37*
G36*
X1035907Y836168D02*
X1034034D01*
Y834296D01*
X1035156Y835045D01*
X1035907Y836168D01*
D02*
G37*
G36*
X1028954D02*
X1027082D01*
X1027831Y835045D01*
X1028954Y834296D01*
Y836168D01*
D02*
G37*
G36*
X1044702Y830793D02*
X1041097Y830319D01*
X1037737Y828927D01*
X1034853Y826713D01*
X1033112Y824445D01*
X1031842Y824876D01*
Y829404D01*
X1021842D01*
Y816864D01*
Y804324D01*
X1031842D01*
Y808852D01*
X1033112Y809283D01*
X1034853Y807015D01*
X1037737Y804801D01*
X1041097Y803409D01*
X1044702Y802935D01*
X1048307Y803409D01*
X1051667Y804801D01*
X1054551Y807015D01*
X1056765Y809899D01*
X1058157Y813259D01*
X1058631Y816864D01*
X1058157Y820469D01*
X1056765Y823829D01*
X1054551Y826713D01*
X1051667Y828927D01*
X1048307Y830319D01*
X1044702Y830793D01*
D02*
G37*
G36*
X1016762Y829404D02*
X1006762D01*
Y819404D01*
X1016762D01*
Y829404D01*
D02*
G37*
G36*
X1065022Y811530D02*
X1063149D01*
X1063900Y810407D01*
X1065022Y809658D01*
Y811530D01*
D02*
G37*
G36*
X1016762Y814324D02*
X1006762D01*
Y804324D01*
X1016762D01*
Y814324D01*
D02*
G37*
G36*
X1070102Y805275D02*
Y803402D01*
X1071974D01*
X1071225Y804525D01*
X1070102Y805275D01*
D02*
G37*
G36*
X1065022D02*
X1063900Y804525D01*
X1063149Y803402D01*
X1065022D01*
Y805275D01*
D02*
G37*
G36*
X1071974Y798322D02*
X1070102D01*
Y796450D01*
X1071225Y797199D01*
X1071974Y798322D01*
D02*
G37*
G36*
X1065022D02*
X1063149D01*
X1063900Y797199D01*
X1065022Y796450D01*
Y798322D01*
D02*
G37*
G36*
X1171702Y780637D02*
Y778764D01*
X1173575D01*
X1172824Y779886D01*
X1171702Y780637D01*
D02*
G37*
G36*
X1166622D02*
X1165499Y779886D01*
X1164750Y778764D01*
X1166622D01*
Y780637D01*
D02*
G37*
G36*
X1336040Y778351D02*
X1334917Y777600D01*
X1334167Y776478D01*
X1336040D01*
Y778351D01*
D02*
G37*
G36*
X1173575Y773684D02*
X1171702D01*
Y771812D01*
X1172824Y772561D01*
X1173575Y773684D01*
D02*
G37*
G36*
X1166622D02*
X1164750D01*
X1165499Y772561D01*
X1166622Y771812D01*
Y773684D01*
D02*
G37*
G36*
X1336040Y771398D02*
X1334167D01*
X1334917Y770275D01*
X1336040Y769526D01*
Y771398D01*
D02*
G37*
G36*
X1171702Y767682D02*
Y765810D01*
X1173575D01*
X1172824Y766933D01*
X1171702Y767682D01*
D02*
G37*
G36*
X1166622D02*
X1165499Y766933D01*
X1164750Y765810D01*
X1166622D01*
Y767682D01*
D02*
G37*
G36*
X1336040Y761841D02*
X1334917Y761090D01*
X1334167Y759968D01*
X1336040D01*
Y761841D01*
D02*
G37*
G36*
X1173575Y760730D02*
X1171702D01*
Y758857D01*
X1172824Y759607D01*
X1173575Y760730D01*
D02*
G37*
G36*
X1166622D02*
X1164750D01*
X1165499Y759607D01*
X1166622Y758857D01*
Y760730D01*
D02*
G37*
G36*
X1336040Y754888D02*
X1334167D01*
X1334917Y753765D01*
X1336040Y753016D01*
Y754888D01*
D02*
G37*
G36*
X1171702Y753712D02*
Y751840D01*
X1173575D01*
X1172824Y752962D01*
X1171702Y753712D01*
D02*
G37*
G36*
X1166622D02*
X1165499Y752962D01*
X1164750Y751840D01*
X1166622D01*
Y753712D01*
D02*
G37*
G36*
X1336040Y747870D02*
X1334917Y747121D01*
X1334167Y745998D01*
X1336040D01*
Y747870D01*
D02*
G37*
G36*
X1173575Y746760D02*
X1171702D01*
Y744887D01*
X1172824Y745638D01*
X1173575Y746760D01*
D02*
G37*
G36*
X1166622D02*
X1164750D01*
X1165499Y745638D01*
X1166622Y744887D01*
Y746760D01*
D02*
G37*
G36*
X1336040Y740918D02*
X1334167D01*
X1334917Y739796D01*
X1336040Y739045D01*
Y740918D01*
D02*
G37*
G36*
X1171702Y738219D02*
Y736346D01*
X1173575D01*
X1172824Y737468D01*
X1171702Y738219D01*
D02*
G37*
G36*
X1166622D02*
X1165499Y737468D01*
X1164750Y736346D01*
X1166622D01*
Y738219D01*
D02*
G37*
G36*
X1173575Y731266D02*
X1171702D01*
Y729393D01*
X1172824Y730144D01*
X1173575Y731266D01*
D02*
G37*
G36*
X1166622D02*
X1164750D01*
X1165499Y730144D01*
X1166622Y729393D01*
Y731266D01*
D02*
G37*
G36*
X1067054Y745972D02*
X1063971Y745566D01*
X1061098Y744376D01*
X1058631Y742483D01*
X1056738Y740016D01*
X1055548Y737143D01*
X1055142Y734060D01*
X1055548Y730977D01*
X1056738Y728104D01*
X1058631Y725637D01*
X1061098Y723744D01*
X1063971Y722554D01*
X1067054Y722148D01*
X1070137Y722554D01*
X1073010Y723744D01*
X1075477Y725637D01*
X1077370Y728104D01*
X1078560Y730977D01*
X1078966Y734060D01*
X1078560Y737143D01*
X1077370Y740016D01*
X1075477Y742483D01*
X1073010Y744376D01*
X1070137Y745566D01*
X1067054Y745972D01*
D02*
G37*
G36*
X1041654D02*
X1038571Y745566D01*
X1035698Y744376D01*
X1033231Y742483D01*
X1031338Y740016D01*
X1030148Y737143D01*
X1029742Y734060D01*
X1030148Y730977D01*
X1031338Y728104D01*
X1033231Y725637D01*
X1035698Y723744D01*
X1038571Y722554D01*
X1041654Y722148D01*
X1044737Y722554D01*
X1047610Y723744D01*
X1050077Y725637D01*
X1051970Y728104D01*
X1053160Y730977D01*
X1053566Y734060D01*
X1053160Y737143D01*
X1051970Y740016D01*
X1050077Y742483D01*
X1047610Y744376D01*
X1044737Y745566D01*
X1041654Y745972D01*
D02*
G37*
G36*
Y720572D02*
X1038571Y720166D01*
X1035698Y718976D01*
X1033231Y717083D01*
X1031338Y714616D01*
X1030148Y711743D01*
X1029742Y708660D01*
X1030148Y705577D01*
X1031338Y702704D01*
X1033231Y700237D01*
X1035698Y698344D01*
X1038571Y697154D01*
X1041654Y696748D01*
X1044737Y697154D01*
X1047610Y698344D01*
X1050077Y700237D01*
X1051970Y702704D01*
X1053160Y705577D01*
X1053566Y708660D01*
X1053160Y711743D01*
X1051970Y714616D01*
X1050077Y717083D01*
X1047610Y718976D01*
X1044737Y720166D01*
X1041654Y720572D01*
D02*
G37*
G36*
X1067054Y695172D02*
X1063971Y694766D01*
X1061098Y693576D01*
X1058631Y691683D01*
X1056738Y689216D01*
X1055548Y686343D01*
X1055142Y683260D01*
X1055548Y680177D01*
X1056738Y677304D01*
X1058631Y674837D01*
X1061098Y672944D01*
X1063971Y671754D01*
X1067054Y671348D01*
X1070137Y671754D01*
X1073010Y672944D01*
X1075477Y674837D01*
X1077370Y677304D01*
X1078560Y680177D01*
X1078966Y683260D01*
X1078560Y686343D01*
X1077370Y689216D01*
X1075477Y691683D01*
X1073010Y693576D01*
X1070137Y694766D01*
X1067054Y695172D01*
D02*
G37*
G36*
X1041654D02*
X1038571Y694766D01*
X1035698Y693576D01*
X1033231Y691683D01*
X1031338Y689216D01*
X1030148Y686343D01*
X1029742Y683260D01*
X1030148Y680177D01*
X1031338Y677304D01*
X1033231Y674837D01*
X1035698Y672944D01*
X1038571Y671754D01*
X1041654Y671348D01*
X1044737Y671754D01*
X1047610Y672944D01*
X1050077Y674837D01*
X1051970Y677304D01*
X1053160Y680177D01*
X1053566Y683260D01*
X1053160Y686343D01*
X1051970Y689216D01*
X1050077Y691683D01*
X1047610Y693576D01*
X1044737Y694766D01*
X1041654Y695172D01*
D02*
G37*
G36*
X1067054Y669772D02*
X1063971Y669366D01*
X1061098Y668176D01*
X1058631Y666283D01*
X1056738Y663816D01*
X1055548Y660943D01*
X1055142Y657860D01*
X1055548Y654777D01*
X1056738Y651904D01*
X1058631Y649437D01*
X1061098Y647544D01*
X1063971Y646354D01*
X1067054Y645948D01*
X1070137Y646354D01*
X1073010Y647544D01*
X1075477Y649437D01*
X1077370Y651904D01*
X1078560Y654777D01*
X1078966Y657860D01*
X1078560Y660943D01*
X1077370Y663816D01*
X1075477Y666283D01*
X1073010Y668176D01*
X1070137Y669366D01*
X1067054Y669772D01*
D02*
G37*
G36*
X1041654D02*
X1038571Y669366D01*
X1035698Y668176D01*
X1033231Y666283D01*
X1031338Y663816D01*
X1030148Y660943D01*
X1029742Y657860D01*
X1030148Y654777D01*
X1031338Y651904D01*
X1033231Y649437D01*
X1035698Y647544D01*
X1038571Y646354D01*
X1041654Y645948D01*
X1044737Y646354D01*
X1047610Y647544D01*
X1050077Y649437D01*
X1051970Y651904D01*
X1053160Y654777D01*
X1053566Y657860D01*
X1053160Y660943D01*
X1051970Y663816D01*
X1050077Y666283D01*
X1047610Y668176D01*
X1044737Y669366D01*
X1041654Y669772D01*
D02*
G37*
G36*
X1069594Y642757D02*
Y635000D01*
X1077351D01*
X1077323Y635211D01*
X1076261Y637775D01*
X1074571Y639977D01*
X1072370Y641667D01*
X1069806Y642729D01*
X1069594Y642757D01*
D02*
G37*
G36*
X1064514D02*
X1064303Y642729D01*
X1061739Y641667D01*
X1059537Y639977D01*
X1057847Y637775D01*
X1056785Y635211D01*
X1056757Y635000D01*
X1064514D01*
Y642757D01*
D02*
G37*
G36*
X1077351Y629920D02*
X1069594D01*
Y622163D01*
X1069806Y622191D01*
X1072370Y623253D01*
X1074571Y624943D01*
X1076261Y627145D01*
X1077323Y629709D01*
X1077351Y629920D01*
D02*
G37*
G36*
X1064514D02*
X1056757D01*
X1056785Y629709D01*
X1057847Y627145D01*
X1059537Y624943D01*
X1061739Y623253D01*
X1064303Y622191D01*
X1064514Y622163D01*
Y629920D01*
D02*
G37*
G36*
X1041654Y644372D02*
X1038571Y643966D01*
X1035698Y642776D01*
X1033231Y640883D01*
X1031338Y638416D01*
X1030148Y635543D01*
X1029742Y632460D01*
X1030148Y629377D01*
X1031338Y626504D01*
X1033231Y624037D01*
X1035698Y622144D01*
X1038571Y620954D01*
X1041654Y620548D01*
X1044737Y620954D01*
X1047610Y622144D01*
X1050077Y624037D01*
X1051970Y626504D01*
X1053160Y629377D01*
X1053566Y632460D01*
X1053160Y635543D01*
X1051970Y638416D01*
X1050077Y640883D01*
X1047610Y642776D01*
X1044737Y643966D01*
X1041654Y644372D01*
D02*
G37*
G36*
X1311148Y604869D02*
Y602996D01*
X1313020D01*
X1312271Y604118D01*
X1311148Y604869D01*
D02*
G37*
G36*
X1306068D02*
X1304946Y604118D01*
X1304196Y602996D01*
X1306068D01*
Y604869D01*
D02*
G37*
G36*
X1313020Y597916D02*
X1311148D01*
Y596044D01*
X1312271Y596794D01*
X1313020Y597916D01*
D02*
G37*
G36*
X1306068D02*
X1304196D01*
X1304946Y596794D01*
X1306068Y596044D01*
Y597916D01*
D02*
G37*
G36*
X1311148Y591152D02*
Y589280D01*
X1313020D01*
X1312271Y590402D01*
X1311148Y591152D01*
D02*
G37*
G36*
X1306068D02*
X1304946Y590402D01*
X1304196Y589280D01*
X1306068D01*
Y591152D01*
D02*
G37*
G36*
X1313020Y584200D02*
X1311148D01*
Y582327D01*
X1312271Y583078D01*
X1313020Y584200D01*
D02*
G37*
G36*
X1306068D02*
X1304196D01*
X1304946Y583078D01*
X1306068Y582327D01*
Y584200D01*
D02*
G37*
G36*
X1097534Y557667D02*
X1097322Y557639D01*
X1094759Y556577D01*
X1092557Y554887D01*
X1090867Y552686D01*
X1089805Y550121D01*
X1089777Y549910D01*
X1097534D01*
Y557667D01*
D02*
G37*
G36*
Y544830D02*
X1089777D01*
X1089805Y544618D01*
X1090867Y542054D01*
X1092557Y539853D01*
X1094759Y538163D01*
X1097322Y537101D01*
X1097534Y537073D01*
Y544830D01*
D02*
G37*
G36*
X1074674Y559282D02*
X1071591Y558876D01*
X1068718Y557686D01*
X1066251Y555793D01*
X1064358Y553326D01*
X1063168Y550453D01*
X1062762Y547370D01*
X1063168Y544287D01*
X1064358Y541414D01*
X1066251Y538947D01*
X1068718Y537054D01*
X1071591Y535864D01*
X1074674Y535458D01*
X1077757Y535864D01*
X1080630Y537054D01*
X1083097Y538947D01*
X1084990Y541414D01*
X1086180Y544287D01*
X1086586Y547370D01*
X1086180Y550453D01*
X1084990Y553326D01*
X1083097Y555793D01*
X1080630Y557686D01*
X1077757Y558876D01*
X1074674Y559282D01*
D02*
G37*
G36*
X1138174Y533882D02*
X1135091Y533476D01*
X1132218Y532286D01*
X1129751Y530393D01*
X1127858Y527926D01*
X1126668Y525053D01*
X1126262Y521970D01*
X1126668Y518887D01*
X1127858Y516014D01*
X1129751Y513547D01*
X1132218Y511654D01*
X1135091Y510464D01*
X1138174Y510058D01*
X1141257Y510464D01*
X1144130Y511654D01*
X1146597Y513547D01*
X1148490Y516014D01*
X1149680Y518887D01*
X1150086Y521970D01*
X1149680Y525053D01*
X1148490Y527926D01*
X1146597Y530393D01*
X1144130Y532286D01*
X1141257Y533476D01*
X1138174Y533882D01*
D02*
G37*
G36*
X1087374D02*
X1084291Y533476D01*
X1081418Y532286D01*
X1078951Y530393D01*
X1077058Y527926D01*
X1075868Y525053D01*
X1075462Y521970D01*
X1075868Y518887D01*
X1077058Y516014D01*
X1078951Y513547D01*
X1081418Y511654D01*
X1084291Y510464D01*
X1087374Y510058D01*
X1090457Y510464D01*
X1093330Y511654D01*
X1095797Y513547D01*
X1097690Y516014D01*
X1098880Y518887D01*
X1099286Y521970D01*
X1098880Y525053D01*
X1097690Y527926D01*
X1095797Y530393D01*
X1093330Y532286D01*
X1090457Y533476D01*
X1087374Y533882D01*
D02*
G37*
G36*
X1260602Y501236D02*
Y499364D01*
X1262475D01*
X1261724Y500486D01*
X1260602Y501236D01*
D02*
G37*
G36*
X1255522D02*
X1254399Y500486D01*
X1253650Y499364D01*
X1255522D01*
Y501236D01*
D02*
G37*
G36*
X1248410D02*
Y499364D01*
X1250283D01*
X1249532Y500486D01*
X1248410Y501236D01*
D02*
G37*
G36*
X1243330D02*
X1242207Y500486D01*
X1241458Y499364D01*
X1243330D01*
Y501236D01*
D02*
G37*
G36*
X1273556Y500983D02*
Y499110D01*
X1275428D01*
X1274678Y500233D01*
X1273556Y500983D01*
D02*
G37*
G36*
X1268476D02*
X1267354Y500233D01*
X1266603Y499110D01*
X1268476D01*
Y500983D01*
D02*
G37*
G36*
X1287018Y500728D02*
Y498856D01*
X1288891D01*
X1288141Y499978D01*
X1287018Y500728D01*
D02*
G37*
G36*
X1281938D02*
X1280815Y499978D01*
X1280065Y498856D01*
X1281938D01*
Y500728D01*
D02*
G37*
G36*
X1262475Y494284D02*
X1260602D01*
Y492411D01*
X1261724Y493162D01*
X1262475Y494284D01*
D02*
G37*
G36*
X1255522D02*
X1253650D01*
X1254399Y493162D01*
X1255522Y492411D01*
Y494284D01*
D02*
G37*
G36*
X1250283D02*
X1248410D01*
Y492411D01*
X1249532Y493162D01*
X1250283Y494284D01*
D02*
G37*
G36*
X1243330D02*
X1241458D01*
X1242207Y493162D01*
X1243330Y492411D01*
Y494284D01*
D02*
G37*
G36*
X1275428Y494030D02*
X1273556D01*
Y492158D01*
X1274678Y492907D01*
X1275428Y494030D01*
D02*
G37*
G36*
X1268476D02*
X1266603D01*
X1267354Y492907D01*
X1268476Y492158D01*
Y494030D01*
D02*
G37*
G36*
X1288891Y493776D02*
X1287018D01*
Y491903D01*
X1288141Y492654D01*
X1288891Y493776D01*
D02*
G37*
G36*
X1281938D02*
X1280065D01*
X1280815Y492654D01*
X1281938Y491903D01*
Y493776D01*
D02*
G37*
G36*
X1298194Y477371D02*
X1294507Y477008D01*
X1290961Y475932D01*
X1287693Y474186D01*
X1284829Y471835D01*
X1282478Y468971D01*
X1280732Y465703D01*
X1279656Y462157D01*
X1279293Y458470D01*
X1279656Y454783D01*
X1280732Y451237D01*
X1282478Y447969D01*
X1284829Y445105D01*
X1287693Y442754D01*
X1290961Y441008D01*
X1294507Y439932D01*
X1298194Y439569D01*
X1301881Y439932D01*
X1305427Y441008D01*
X1308695Y442754D01*
X1311559Y445105D01*
X1313910Y447969D01*
X1315656Y451237D01*
X1316732Y454783D01*
X1317095Y458470D01*
X1316732Y462157D01*
X1315656Y465703D01*
X1313910Y468971D01*
X1311559Y471835D01*
X1308695Y474186D01*
X1305427Y475932D01*
X1301881Y477008D01*
X1298194Y477371D01*
D02*
G37*
G36*
X1196594D02*
X1192907Y477008D01*
X1189361Y475932D01*
X1186093Y474186D01*
X1183229Y471835D01*
X1180878Y468971D01*
X1179132Y465703D01*
X1178056Y462157D01*
X1177693Y458470D01*
X1178056Y454783D01*
X1179132Y451237D01*
X1180878Y447969D01*
X1183229Y445105D01*
X1186093Y442754D01*
X1189361Y441008D01*
X1192907Y439932D01*
X1196594Y439569D01*
X1200281Y439932D01*
X1203827Y441008D01*
X1207095Y442754D01*
X1209959Y445105D01*
X1212310Y447969D01*
X1214056Y451237D01*
X1215132Y454783D01*
X1215495Y458470D01*
X1215132Y462157D01*
X1214056Y465703D01*
X1212310Y468971D01*
X1209959Y471835D01*
X1207095Y474186D01*
X1203827Y475932D01*
X1200281Y477008D01*
X1196594Y477371D01*
D02*
G37*
G36*
X1157224D02*
X1153537Y477008D01*
X1149991Y475932D01*
X1146723Y474186D01*
X1143859Y471835D01*
X1141508Y468971D01*
X1139762Y465703D01*
X1138686Y462157D01*
X1138323Y458470D01*
X1138686Y454783D01*
X1139762Y451237D01*
X1141508Y447969D01*
X1143859Y445105D01*
X1146723Y442754D01*
X1149991Y441008D01*
X1153537Y439932D01*
X1157224Y439569D01*
X1160911Y439932D01*
X1164457Y441008D01*
X1167725Y442754D01*
X1170589Y445105D01*
X1172940Y447969D01*
X1174686Y451237D01*
X1175762Y454783D01*
X1176125Y458470D01*
X1175762Y462157D01*
X1174686Y465703D01*
X1172940Y468971D01*
X1170589Y471835D01*
X1167725Y474186D01*
X1164457Y475932D01*
X1160911Y477008D01*
X1157224Y477371D01*
D02*
G37*
G36*
X1055624D02*
X1051937Y477008D01*
X1048391Y475932D01*
X1045123Y474186D01*
X1042259Y471835D01*
X1039908Y468971D01*
X1038162Y465703D01*
X1037086Y462157D01*
X1036723Y458470D01*
X1037086Y454783D01*
X1038162Y451237D01*
X1039908Y447969D01*
X1042259Y445105D01*
X1045123Y442754D01*
X1048391Y441008D01*
X1051937Y439932D01*
X1055624Y439569D01*
X1059311Y439932D01*
X1062857Y441008D01*
X1066125Y442754D01*
X1068989Y445105D01*
X1071340Y447969D01*
X1073086Y451237D01*
X1074162Y454783D01*
X1074525Y458470D01*
X1074162Y462157D01*
X1073086Y465703D01*
X1071340Y468971D01*
X1068989Y471835D01*
X1066125Y474186D01*
X1062857Y475932D01*
X1059311Y477008D01*
X1055624Y477371D01*
D02*
G37*
G36*
X1170328Y340200D02*
X1100328D01*
Y330200D01*
X1170328D01*
Y340200D01*
D02*
G37*
G36*
X1095248D02*
X1025248D01*
Y330200D01*
X1095248D01*
Y340200D01*
D02*
G37*
G36*
X1170328Y325120D02*
X1100328D01*
Y315120D01*
X1170328D01*
Y325120D01*
D02*
G37*
G36*
X1095248D02*
X1025248D01*
Y315120D01*
X1095248D01*
Y325120D01*
D02*
G37*
G36*
X1329586Y341470D02*
X1181966D01*
Y313850D01*
X1329586D01*
Y341470D01*
D02*
G37*
G36*
X1217422Y630014D02*
Y628142D01*
X1219295D01*
X1218544Y629264D01*
X1217422Y630014D01*
D02*
G37*
G36*
X1212342D02*
X1211219Y629264D01*
X1210470Y628142D01*
X1212342D01*
Y630014D01*
D02*
G37*
G36*
X1232154Y629506D02*
Y627634D01*
X1234026D01*
X1233277Y628756D01*
X1232154Y629506D01*
D02*
G37*
G36*
X1227074D02*
X1225952Y628756D01*
X1225201Y627634D01*
X1227074D01*
Y629506D01*
D02*
G37*
G36*
X1219295Y623062D02*
X1217422D01*
Y621189D01*
X1218544Y621940D01*
X1219295Y623062D01*
D02*
G37*
G36*
X1212342D02*
X1210470D01*
X1211219Y621940D01*
X1212342Y621189D01*
Y623062D01*
D02*
G37*
G36*
X1234026Y622554D02*
X1232154D01*
Y620681D01*
X1233277Y621432D01*
X1234026Y622554D01*
D02*
G37*
G36*
X1227074D02*
X1225201D01*
X1225952Y621432D01*
X1227074Y620681D01*
Y622554D01*
D02*
G37*
G36*
X1233678Y581246D02*
Y579374D01*
X1235551D01*
X1234800Y580496D01*
X1233678Y581246D01*
D02*
G37*
G36*
X1228598D02*
X1227476Y580496D01*
X1226725Y579374D01*
X1228598D01*
Y581246D01*
D02*
G37*
G36*
X1221232D02*
Y579374D01*
X1223104D01*
X1222355Y580496D01*
X1221232Y581246D01*
D02*
G37*
G36*
X1216152D02*
X1215030Y580496D01*
X1214279Y579374D01*
X1216152D01*
Y581246D01*
D02*
G37*
G36*
X1235551Y574294D02*
X1233678D01*
Y572421D01*
X1234800Y573172D01*
X1235551Y574294D01*
D02*
G37*
G36*
X1228598D02*
X1226725D01*
X1227476Y573172D01*
X1228598Y572421D01*
Y574294D01*
D02*
G37*
G36*
X1223104D02*
X1221232D01*
Y572421D01*
X1222355Y573172D01*
X1223104Y574294D01*
D02*
G37*
G36*
X1216152D02*
X1214279D01*
X1215030Y573172D01*
X1216152Y572421D01*
Y574294D01*
D02*
G37*
G36*
X1238504Y557667D02*
X1238292Y557639D01*
X1235729Y556577D01*
X1233527Y554887D01*
X1231837Y552686D01*
X1230775Y550121D01*
X1230747Y549910D01*
X1238504D01*
Y557667D01*
D02*
G37*
G36*
Y544830D02*
X1230747D01*
X1230775Y544618D01*
X1231837Y542054D01*
X1233527Y539853D01*
X1235729Y538163D01*
X1238292Y537101D01*
X1238504Y537073D01*
Y544830D01*
D02*
G37*
G36*
X1215644Y559282D02*
X1212561Y558876D01*
X1209688Y557686D01*
X1207221Y555793D01*
X1205328Y553326D01*
X1204138Y550453D01*
X1203732Y547370D01*
X1204138Y544287D01*
X1205328Y541414D01*
X1207221Y538947D01*
X1209688Y537054D01*
X1212561Y535864D01*
X1215644Y535458D01*
X1218727Y535864D01*
X1221600Y537054D01*
X1224067Y538947D01*
X1225960Y541414D01*
X1227150Y544287D01*
X1227556Y547370D01*
X1227150Y550453D01*
X1225960Y553326D01*
X1224067Y555793D01*
X1221600Y557686D01*
X1218727Y558876D01*
X1215644Y559282D01*
D02*
G37*
%LPD*%
D11*
X1253744Y521970D02*
Y685800D01*
X1112774Y559816D02*
X1269492Y716534D01*
X1112774Y521970D02*
Y559816D01*
X1044702Y862076D02*
X1057910Y848868D01*
Y837946D02*
Y848868D01*
Y837946D02*
X1106170Y789686D01*
X1202436D01*
X1108202Y804926D02*
X1207516D01*
X1070102Y843026D02*
X1108202Y804926D01*
X1070102Y843026D02*
Y862076D01*
X1185926Y508508D02*
X1326642D01*
X1147064Y547370D02*
X1185926Y508508D01*
X1126236Y547370D02*
X1147064D01*
X1269492Y716534D02*
Y789432D01*
X1067054Y708660D02*
X1067308Y708914D01*
X1252474D01*
X1207516Y804926D02*
X1262888Y749554D01*
X1202436Y789686D02*
X1262634Y729488D01*
X1112266Y818388D02*
X1313688D01*
D41*
X1097788Y327660D02*
D03*
X1255776D02*
D03*
D42*
X1067054Y632460D02*
D03*
X1041654D02*
D03*
X1067054Y657860D02*
D03*
X1041654D02*
D03*
X1067054Y683260D02*
D03*
X1041654D02*
D03*
X1067054Y708660D02*
D03*
X1041654D02*
D03*
X1067054Y734060D02*
D03*
X1041654D02*
D03*
X1138174Y521970D02*
D03*
X1125474Y547370D02*
D03*
X1112774Y521970D02*
D03*
X1100074Y547370D02*
D03*
X1087374Y521970D02*
D03*
X1074674Y547370D02*
D03*
X1279144Y521970D02*
D03*
X1266444Y547370D02*
D03*
X1253744Y521970D02*
D03*
X1241044Y547370D02*
D03*
X1228344Y521970D02*
D03*
X1215644Y547370D02*
D03*
X1044702Y862076D02*
D03*
X1019302D02*
D03*
D43*
X1044702Y816864D02*
D03*
D44*
X1019302D02*
D03*
D45*
X1070102Y862076D02*
D03*
D46*
X1253744Y685800D02*
D03*
X1067562Y814070D02*
D03*
Y800862D02*
D03*
X1059688Y883666D02*
D03*
X1036320Y884174D02*
D03*
X1031494Y838708D02*
D03*
X1229614Y625094D02*
D03*
X1214882Y625602D02*
D03*
X1326642Y508508D02*
D03*
X1269492Y789432D02*
D03*
X1338580Y743458D02*
D03*
X1252474Y708914D02*
D03*
X1262888Y749554D02*
D03*
X1262634Y729488D02*
D03*
X1112266Y818388D02*
D03*
X1313688D02*
D03*
X1169162Y776224D02*
D03*
Y763270D02*
D03*
Y749300D02*
D03*
Y733806D02*
D03*
X1338580Y757428D02*
D03*
Y773938D02*
D03*
X1308608Y600456D02*
D03*
Y586740D02*
D03*
X1218692Y576834D02*
D03*
X1231138D02*
D03*
X1245870Y496824D02*
D03*
X1258062D02*
D03*
X1271016Y496570D02*
D03*
X1284478Y496316D02*
D03*
D47*
X1157224Y458470D02*
D03*
X1055624D02*
D03*
X1298194D02*
D03*
X1196594D02*
D03*
M02*
