G04*
G04 #@! TF.GenerationSoftware,Altium Limited,Altium Designer,18.0.12 (696)*
G04*
G04 Layer_Color=8421504*
%FSLAX44Y44*%
%MOMM*%
G71*
G01*
G75*
%ADD18R,2.5000X1.4000*%
%ADD19R,1.4000X2.5000*%
%ADD20R,1.5000X1.3000*%
%ADD21R,0.9144X0.7620*%
%ADD22R,0.8500X0.6500*%
%ADD23R,1.5000X1.0000*%
%ADD24R,0.7620X0.9144*%
%ADD25R,0.8103X0.2997*%
D18*
X1294130Y709620D02*
D03*
Y689620D02*
D03*
X1139130Y669620D02*
D03*
X1294130Y769620D02*
D03*
Y789620D02*
D03*
Y809620D02*
D03*
Y729620D02*
D03*
Y749620D02*
D03*
X1139130Y729620D02*
D03*
Y689620D02*
D03*
Y709620D02*
D03*
X1294130Y669620D02*
D03*
X1139130Y749620D02*
D03*
Y769620D02*
D03*
Y789620D02*
D03*
Y809620D02*
D03*
D19*
X1166630Y657120D02*
D03*
X1186630D02*
D03*
X1206630D02*
D03*
X1266630D02*
D03*
X1246630D02*
D03*
X1226630D02*
D03*
D20*
X1100582Y861720D02*
D03*
Y880720D02*
D03*
X1324610Y861720D02*
D03*
Y880720D02*
D03*
X1324864Y618388D02*
D03*
Y637388D02*
D03*
D21*
X1248156Y574548D02*
D03*
X1263396D02*
D03*
D22*
X1289304Y612004D02*
D03*
Y595004D02*
D03*
X1221740Y612004D02*
D03*
Y595004D02*
D03*
X1324356Y784488D02*
D03*
Y801488D02*
D03*
Y679078D02*
D03*
Y696078D02*
D03*
Y713622D02*
D03*
Y730622D02*
D03*
X1324864Y594224D02*
D03*
Y577224D02*
D03*
X1324558Y818548D02*
D03*
Y835548D02*
D03*
X1100276Y818548D02*
D03*
Y835548D02*
D03*
X1125220Y591820D02*
D03*
Y608820D02*
D03*
X1148276Y608820D02*
D03*
Y591820D02*
D03*
D23*
X1196848Y589206D02*
D03*
Y611706D02*
D03*
D24*
X1324356Y765810D02*
D03*
Y750570D02*
D03*
X1171448Y607704D02*
D03*
Y592464D02*
D03*
D25*
X1270533Y611937D02*
D03*
X1241527D02*
D03*
Y591947D02*
D03*
X1270533D02*
D03*
Y601929D02*
D03*
X1241527D02*
D03*
M02*
