G04*
G04 #@! TF.GenerationSoftware,Altium Limited,Altium Designer,18.0.12 (696)*
G04*
G04 Layer_Physical_Order=1*
G04 Layer_Color=255*
%FSLAX44Y44*%
%MOMM*%
G71*
G01*
G75*
%ADD11C,0.2540*%
%ADD18R,2.5000X1.4000*%
%ADD19R,1.4000X2.5000*%
%ADD20R,1.5000X1.3000*%
%ADD21R,0.9144X0.7620*%
%ADD22R,0.8500X0.6500*%
%ADD23R,1.5000X1.0000*%
%ADD24R,0.7620X0.9144*%
%ADD25R,0.8103X0.2997*%
%ADD40C,1.0160*%
%ADD41R,14.0000X2.0000*%
%ADD42C,1.6000*%
%ADD43C,2.0000*%
%ADD44R,2.0000X2.0000*%
%ADD45R,1.6000X1.6000*%
%ADD46C,0.5080*%
%ADD47C,3.0000*%
G36*
X1108047Y883019D02*
X1108124Y882803D01*
X1108252Y882612D01*
X1108432Y882447D01*
X1108664Y882308D01*
X1108946Y882193D01*
X1109281Y882104D01*
X1109666Y882041D01*
X1110103Y882003D01*
X1110592Y881990D01*
Y879450D01*
X1110103Y879437D01*
X1109666Y879399D01*
X1109281Y879336D01*
X1108946Y879247D01*
X1108664Y879133D01*
X1108432Y878993D01*
X1108252Y878828D01*
X1108124Y878637D01*
X1108047Y878421D01*
X1108021Y878180D01*
Y883260D01*
X1108047Y883019D01*
D02*
G37*
G36*
X1337742Y894268D02*
X1339565Y893513D01*
X1341130Y892312D01*
X1342331Y890747D01*
X1343086Y888924D01*
X1343329Y887081D01*
X1343306Y886968D01*
X1343306Y778120D01*
X1342036Y777738D01*
X1341120Y778351D01*
Y773938D01*
Y769526D01*
X1342036Y770138D01*
X1343306Y769756D01*
Y761610D01*
X1342036Y761228D01*
X1341120Y761841D01*
Y757428D01*
Y753016D01*
X1342036Y753628D01*
X1343306Y753246D01*
Y747640D01*
X1342036Y747258D01*
X1341120Y747870D01*
Y743458D01*
Y739045D01*
X1342036Y739658D01*
X1343306Y739276D01*
X1343306Y317500D01*
X1343329Y317387D01*
X1343086Y315544D01*
X1342331Y313721D01*
X1341130Y312156D01*
X1339565Y310955D01*
X1337742Y310200D01*
X1335898Y309957D01*
X1335786Y309979D01*
X1012952D01*
X1012840Y309957D01*
X1010996Y310200D01*
X1009173Y310955D01*
X1007608Y312156D01*
X1006407Y313721D01*
X1005652Y315544D01*
X1005409Y317388D01*
X1005432Y317500D01*
Y327660D01*
X1005431Y327660D01*
X1005432Y886968D01*
X1005409Y887081D01*
X1005652Y888924D01*
X1006407Y890747D01*
X1007608Y892312D01*
X1009173Y893513D01*
X1010996Y894268D01*
X1012840Y894511D01*
X1012952Y894489D01*
X1122087D01*
X1123188Y894080D01*
X1123188Y893219D01*
Y877694D01*
X1121918Y877569D01*
X1121877Y877774D01*
X1120754Y879454D01*
X1115826Y884382D01*
X1114146Y885505D01*
X1112164Y885900D01*
X1111892D01*
Y891030D01*
X1089272D01*
Y870410D01*
Y851410D01*
X1095403D01*
Y842608D01*
X1092216D01*
Y828488D01*
X1108336D01*
Y842608D01*
X1105761D01*
Y851410D01*
X1111892D01*
X1111913Y850148D01*
Y825246D01*
X1111999Y824809D01*
X1109788Y824370D01*
X1109606Y824248D01*
X1108336Y824927D01*
Y825608D01*
X1092216D01*
Y811488D01*
X1095097D01*
Y798587D01*
X1073562D01*
X1072542Y799857D01*
X1072741Y800862D01*
X1072347Y802844D01*
X1071225Y804525D01*
X1070102Y805275D01*
Y800862D01*
X1065022D01*
Y805275D01*
X1063900Y804525D01*
X1062777Y802844D01*
X1062383Y800862D01*
X1062582Y799857D01*
X1061562Y798587D01*
X1053669D01*
Y802235D01*
X1053736Y804068D01*
X1053809Y804771D01*
X1053909Y805410D01*
X1054025Y805941D01*
X1054150Y806358D01*
X1054268Y806660D01*
X1054365Y806848D01*
X1054396Y806896D01*
X1054551Y807015D01*
X1056765Y809899D01*
X1058157Y813259D01*
X1058631Y816864D01*
X1058157Y820469D01*
X1056765Y823829D01*
X1054551Y826713D01*
X1051667Y828927D01*
X1048307Y830319D01*
X1044702Y830793D01*
X1041097Y830319D01*
X1037737Y828927D01*
X1034853Y826713D01*
X1033112Y824445D01*
X1031842Y824876D01*
Y829404D01*
X1021842D01*
Y816864D01*
Y804324D01*
X1031842D01*
Y808852D01*
X1033112Y809283D01*
X1034853Y807015D01*
X1035008Y806896D01*
X1035039Y806848D01*
X1035136Y806660D01*
X1035254Y806358D01*
X1035378Y805941D01*
X1035495Y805410D01*
X1035588Y804816D01*
X1035721Y803143D01*
X1035735Y802332D01*
Y791368D01*
X1017788Y773420D01*
X1016363Y771563D01*
X1015467Y769401D01*
X1015161Y767080D01*
Y649986D01*
X1015467Y647665D01*
X1016363Y645503D01*
X1017788Y643646D01*
X1027656Y633777D01*
X1028684Y632724D01*
X1029512Y631819D01*
X1029887Y631362D01*
X1030148Y629377D01*
X1031338Y626504D01*
X1032498Y624992D01*
X1032685Y622245D01*
X1032687Y621830D01*
Y604012D01*
X1032993Y601691D01*
X1033889Y599529D01*
X1035314Y597672D01*
X1059698Y573288D01*
X1061555Y571863D01*
X1063717Y570967D01*
X1066038Y570661D01*
X1082195D01*
Y557921D01*
X1081055Y557360D01*
X1080630Y557686D01*
X1077757Y558876D01*
X1074674Y559282D01*
X1071591Y558876D01*
X1068718Y557686D01*
X1066251Y555793D01*
X1064358Y553326D01*
X1063168Y550453D01*
X1062762Y547370D01*
X1063168Y544287D01*
X1064358Y541414D01*
X1066251Y538947D01*
X1068718Y537054D01*
X1071591Y535864D01*
X1074674Y535458D01*
X1077757Y535864D01*
X1080630Y537054D01*
X1081055Y537380D01*
X1082195Y536819D01*
Y534610D01*
X1082185Y534568D01*
X1082108Y534347D01*
X1081956Y534018D01*
X1081715Y533595D01*
X1081378Y533091D01*
X1080970Y532552D01*
X1079753Y531165D01*
X1079113Y530518D01*
X1078951Y530393D01*
X1077058Y527926D01*
X1075868Y525053D01*
X1075462Y521970D01*
X1075868Y518887D01*
X1077058Y516014D01*
X1078951Y513547D01*
X1081418Y511654D01*
X1084291Y510464D01*
X1087374Y510058D01*
X1090457Y510464D01*
X1093330Y511654D01*
X1095797Y513547D01*
X1097690Y516014D01*
X1098880Y518887D01*
X1099286Y521970D01*
X1098880Y525053D01*
X1097690Y527926D01*
X1095797Y530393D01*
X1095635Y530518D01*
X1094996Y531165D01*
X1093778Y532552D01*
X1093370Y533091D01*
X1093034Y533594D01*
X1092792Y534018D01*
X1092640Y534347D01*
X1092562Y534568D01*
X1092553Y534610D01*
Y538255D01*
X1093823Y538881D01*
X1094759Y538163D01*
X1097322Y537101D01*
X1097534Y537073D01*
Y547370D01*
Y557667D01*
X1097322Y557639D01*
X1094759Y556577D01*
X1093823Y555859D01*
X1092553Y556485D01*
Y570661D01*
X1136084D01*
X1138405Y570967D01*
X1140567Y571863D01*
X1142424Y573288D01*
X1146267Y577130D01*
X1152101Y582853D01*
X1156488D01*
X1158329Y581441D01*
X1160491Y580545D01*
X1162812Y580239D01*
X1187495D01*
X1187530Y580058D01*
X1187861Y575831D01*
X1187881Y574219D01*
Y564642D01*
Y504952D01*
X1188187Y502631D01*
X1189083Y500469D01*
X1190508Y498612D01*
X1247063Y442056D01*
Y347762D01*
X1247019Y346075D01*
X1246890Y344610D01*
X1246692Y343416D01*
X1246448Y342510D01*
X1246201Y341902D01*
X1246006Y341583D01*
X1245941Y341513D01*
X1245536Y341470D01*
X1181966D01*
Y313850D01*
X1329586D01*
Y341470D01*
X1266524D01*
X1266119Y341513D01*
X1266054Y341583D01*
X1265859Y341902D01*
X1265612Y342510D01*
X1265368Y343416D01*
X1265170Y344610D01*
X1265041Y346075D01*
X1264997Y347762D01*
Y445770D01*
X1264997Y445770D01*
X1264691Y448091D01*
X1263795Y450253D01*
X1262370Y452110D01*
X1205815Y508666D01*
Y538804D01*
X1207017Y539212D01*
X1207221Y538947D01*
X1209688Y537054D01*
X1212561Y535864D01*
X1215644Y535458D01*
X1218727Y535864D01*
X1221600Y537054D01*
X1224067Y538947D01*
X1225960Y541414D01*
X1227150Y544287D01*
X1227556Y547370D01*
X1227150Y550453D01*
X1225960Y553326D01*
X1224067Y555793D01*
X1221600Y557686D01*
X1220377Y558192D01*
X1220630Y559463D01*
X1261458D01*
X1261711Y558192D01*
X1260488Y557686D01*
X1258021Y555793D01*
X1256128Y553326D01*
X1254938Y550453D01*
X1254532Y547370D01*
X1254938Y544287D01*
X1256128Y541414D01*
X1258021Y538947D01*
X1260488Y537054D01*
X1263361Y535864D01*
X1266444Y535458D01*
X1269527Y535864D01*
X1272400Y537054D01*
X1274867Y538947D01*
X1276760Y541414D01*
X1277950Y544287D01*
X1278356Y547370D01*
X1277950Y550453D01*
X1276760Y553326D01*
X1274867Y555793D01*
X1272400Y557686D01*
X1271177Y558192D01*
X1271430Y559463D01*
X1312282D01*
X1314264Y559857D01*
X1315945Y560979D01*
X1324924Y569959D01*
X1325058Y570077D01*
X1325142Y570143D01*
X1325261Y570120D01*
X1325476Y570164D01*
X1331622D01*
Y520813D01*
X1325580Y514771D01*
X1324164Y514490D01*
X1322064Y513086D01*
X1320660Y510986D01*
X1320168Y508508D01*
X1320660Y506030D01*
X1322064Y503930D01*
X1324164Y502526D01*
X1326642Y502034D01*
X1329120Y502526D01*
X1331220Y503930D01*
X1332624Y506030D01*
X1332905Y507446D01*
X1340464Y515005D01*
X1341587Y516686D01*
X1341982Y518668D01*
Y666632D01*
X1341982Y666632D01*
X1341587Y668614D01*
X1340464Y670294D01*
X1332657Y678102D01*
X1332416Y678360D01*
Y686138D01*
X1319157D01*
X1318981Y687020D01*
X1318495Y687748D01*
X1319174Y689018D01*
X1332416D01*
Y703138D01*
X1329536D01*
Y706562D01*
X1332416D01*
Y720682D01*
X1324968D01*
X1324753Y720726D01*
X1324648Y720706D01*
X1324341Y720962D01*
X1321644Y723659D01*
X1321816Y724073D01*
Y730622D01*
Y736412D01*
X1318613D01*
Y743458D01*
X1321816D01*
Y750570D01*
X1324356D01*
Y753110D01*
X1330706D01*
Y757428D01*
X1331976D01*
Y774192D01*
X1329536D01*
Y777428D01*
X1332416D01*
Y791548D01*
X1324968D01*
X1324753Y791592D01*
X1324648Y791572D01*
X1324341Y791828D01*
X1322914Y793255D01*
X1323400Y794428D01*
X1332416D01*
Y808548D01*
X1329536D01*
Y811488D01*
X1332618D01*
Y825608D01*
X1317971D01*
X1317852Y825754D01*
Y828488D01*
X1332618D01*
Y842608D01*
X1329738D01*
Y851410D01*
X1335920D01*
Y870410D01*
Y891030D01*
X1313300D01*
Y878353D01*
X1313260Y878192D01*
X1313298Y877942D01*
X1313071Y877674D01*
X1310132Y874735D01*
X1308862Y875261D01*
Y893219D01*
X1308862Y894080D01*
X1309963Y894489D01*
X1335786D01*
X1335898Y894511D01*
X1337742Y894268D01*
D02*
G37*
G36*
X1320565Y874250D02*
X1320375Y874402D01*
X1320147Y874480D01*
X1319882Y874484D01*
X1319579Y874414D01*
X1319239Y874271D01*
X1318861Y874055D01*
X1318445Y873765D01*
X1317992Y873402D01*
X1316973Y872454D01*
X1315344Y874418D01*
X1315840Y874932D01*
X1316620Y875856D01*
X1316905Y876266D01*
X1317119Y876643D01*
X1317264Y876985D01*
X1317338Y877292D01*
X1317343Y877566D01*
X1317277Y877805D01*
X1317141Y878011D01*
X1320565Y874250D01*
D02*
G37*
G36*
X1326857Y855255D02*
X1326641Y855178D01*
X1326450Y855050D01*
X1326285Y854870D01*
X1326145Y854638D01*
X1326031Y854356D01*
X1325942Y854021D01*
X1325879Y853636D01*
X1325841Y853199D01*
X1325828Y852710D01*
X1323288D01*
X1323275Y853199D01*
X1323237Y853636D01*
X1323174Y854021D01*
X1323085Y854356D01*
X1322970Y854638D01*
X1322831Y854870D01*
X1322666Y855050D01*
X1322475Y855178D01*
X1322259Y855255D01*
X1322018Y855281D01*
X1327098D01*
X1326857Y855255D01*
D02*
G37*
G36*
X1102881D02*
X1102665Y855178D01*
X1102474Y855050D01*
X1102309Y854870D01*
X1102169Y854638D01*
X1102055Y854356D01*
X1101966Y854021D01*
X1101903Y853636D01*
X1101865Y853199D01*
X1101852Y852710D01*
X1099312D01*
X1099299Y853199D01*
X1099261Y853636D01*
X1099198Y854021D01*
X1099109Y854356D01*
X1098995Y854638D01*
X1098855Y854870D01*
X1098690Y855050D01*
X1098499Y855178D01*
X1098283Y855255D01*
X1098042Y855281D01*
X1103122D01*
X1102881Y855255D01*
D02*
G37*
G36*
X1325841Y840825D02*
X1325879Y840393D01*
X1325942Y840012D01*
X1326031Y839682D01*
X1326145Y839402D01*
X1326285Y839174D01*
X1326450Y838996D01*
X1326641Y838869D01*
X1326857Y838793D01*
X1327098Y838767D01*
X1322018D01*
X1322259Y838793D01*
X1322475Y838869D01*
X1322666Y838996D01*
X1322831Y839174D01*
X1322970Y839402D01*
X1323085Y839682D01*
X1323174Y840012D01*
X1323237Y840393D01*
X1323275Y840825D01*
X1323288Y841308D01*
X1325828D01*
X1325841Y840825D01*
D02*
G37*
G36*
X1101865D02*
X1101903Y840393D01*
X1101966Y840012D01*
X1102055Y839682D01*
X1102169Y839402D01*
X1102309Y839174D01*
X1102474Y838996D01*
X1102665Y838869D01*
X1102881Y838793D01*
X1103122Y838767D01*
X1098042D01*
X1098283Y838793D01*
X1098499Y838869D01*
X1098690Y838996D01*
X1098855Y839174D01*
X1098995Y839402D01*
X1099109Y839682D01*
X1099198Y840012D01*
X1099261Y840393D01*
X1099299Y840825D01*
X1099312Y841308D01*
X1101852D01*
X1101865Y840825D01*
D02*
G37*
G36*
X1110344Y816728D02*
X1110239Y816832D01*
X1110116Y816926D01*
X1109974Y817008D01*
X1109814Y817080D01*
X1109634Y817141D01*
X1109436Y817190D01*
X1109220Y817228D01*
X1108984Y817256D01*
X1108457Y817278D01*
X1108643Y819818D01*
X1108917Y819823D01*
X1109410Y819859D01*
X1109630Y819891D01*
X1109831Y819933D01*
X1110015Y819983D01*
X1110180Y820043D01*
X1110327Y820112D01*
X1110457Y820190D01*
X1110568Y820277D01*
X1110344Y816728D01*
D02*
G37*
G36*
X1315611Y820070D02*
X1315738Y819983D01*
X1315883Y819907D01*
X1316046Y819841D01*
X1316228Y819785D01*
X1316429Y819739D01*
X1316647Y819704D01*
X1316884Y819678D01*
X1317412Y819658D01*
Y817118D01*
X1317139Y817113D01*
X1316647Y817072D01*
X1316429Y817037D01*
X1316228Y816991D01*
X1316046Y816935D01*
X1315883Y816869D01*
X1315738Y816793D01*
X1315611Y816706D01*
X1315502Y816610D01*
Y820166D01*
X1315611Y820070D01*
D02*
G37*
G36*
X1104491Y820847D02*
X1104568Y820631D01*
X1104696Y820440D01*
X1104876Y820275D01*
X1105108Y820135D01*
X1105390Y820021D01*
X1105725Y819932D01*
X1106110Y819869D01*
X1106547Y819831D01*
X1107036Y819818D01*
Y817278D01*
X1106547Y817265D01*
X1106110Y817227D01*
X1105725Y817164D01*
X1105390Y817075D01*
X1105108Y816961D01*
X1104876Y816821D01*
X1104696Y816656D01*
X1104568Y816465D01*
X1104491Y816249D01*
X1104465Y816008D01*
Y821088D01*
X1104491Y820847D01*
D02*
G37*
G36*
X1320369Y815848D02*
X1320343Y816089D01*
X1320266Y816305D01*
X1320138Y816496D01*
X1319958Y816661D01*
X1319726Y816801D01*
X1319444Y816915D01*
X1319109Y817004D01*
X1318724Y817067D01*
X1318287Y817105D01*
X1317798Y817118D01*
Y819658D01*
X1318287Y819671D01*
X1318724Y819709D01*
X1319109Y819772D01*
X1319444Y819861D01*
X1319726Y819976D01*
X1319958Y820115D01*
X1320138Y820280D01*
X1320266Y820471D01*
X1320343Y820687D01*
X1320369Y820928D01*
Y815848D01*
D02*
G37*
G36*
X1326655Y815333D02*
X1326439Y815256D01*
X1326248Y815128D01*
X1326083Y814948D01*
X1325943Y814716D01*
X1325829Y814434D01*
X1325740Y814099D01*
X1325677Y813714D01*
X1325639Y813277D01*
X1325626Y812788D01*
X1323086D01*
X1323073Y813277D01*
X1323035Y813714D01*
X1322972Y814099D01*
X1322883Y814434D01*
X1322769Y814716D01*
X1322629Y814948D01*
X1322464Y815128D01*
X1322273Y815256D01*
X1322057Y815333D01*
X1321816Y815359D01*
X1326896D01*
X1326655Y815333D01*
D02*
G37*
G36*
X1102575D02*
X1102359Y815256D01*
X1102168Y815128D01*
X1102003Y814948D01*
X1101863Y814716D01*
X1101749Y814434D01*
X1101660Y814099D01*
X1101597Y813714D01*
X1101559Y813277D01*
X1101546Y812788D01*
X1099006D01*
X1098993Y813277D01*
X1098955Y813714D01*
X1098892Y814099D01*
X1098803Y814434D01*
X1098689Y814716D01*
X1098549Y814948D01*
X1098384Y815128D01*
X1098193Y815256D01*
X1097977Y815333D01*
X1097736Y815359D01*
X1102816D01*
X1102575Y815333D01*
D02*
G37*
G36*
X1119936Y815635D02*
X1121918Y815240D01*
X1121918Y815240D01*
X1123188D01*
Y814324D01*
X1124090D01*
Y812160D01*
X1154170D01*
Y814324D01*
X1214161D01*
X1221451Y807035D01*
Y673430D01*
X1155820D01*
X1155440Y674542D01*
Y678810D01*
Y698810D01*
Y718810D01*
Y738810D01*
Y758810D01*
Y778810D01*
Y800430D01*
X1154170D01*
Y807080D01*
X1124090D01*
Y800430D01*
X1122820D01*
Y798966D01*
X1118258Y798602D01*
X1116691Y798587D01*
X1105455D01*
Y811488D01*
X1108336D01*
Y811849D01*
X1109606Y812528D01*
X1109788Y812406D01*
X1112266Y811914D01*
X1114744Y812406D01*
X1116844Y813810D01*
X1118248Y815910D01*
X1119035Y816237D01*
X1119936Y815635D01*
D02*
G37*
G36*
X1306595Y811919D02*
X1306672Y811703D01*
X1306800Y811512D01*
X1306980Y811347D01*
X1307212Y811207D01*
X1307494Y811093D01*
X1307829Y811004D01*
X1308214Y810941D01*
X1308651Y810903D01*
X1309140Y810890D01*
Y808350D01*
X1308651Y808337D01*
X1308214Y808299D01*
X1307829Y808236D01*
X1307494Y808147D01*
X1307212Y808032D01*
X1306980Y807893D01*
X1306800Y807728D01*
X1306672Y807537D01*
X1306595Y807321D01*
X1306569Y807080D01*
Y812160D01*
X1306595Y811919D01*
D02*
G37*
G36*
X1281691Y807080D02*
X1281665Y807321D01*
X1281588Y807537D01*
X1281460Y807728D01*
X1281280Y807893D01*
X1281048Y808032D01*
X1280766Y808147D01*
X1280431Y808236D01*
X1280046Y808299D01*
X1279609Y808337D01*
X1279120Y808350D01*
Y810890D01*
X1279609Y810903D01*
X1280046Y810941D01*
X1280431Y811004D01*
X1280766Y811093D01*
X1281048Y811207D01*
X1281280Y811347D01*
X1281460Y811512D01*
X1281588Y811703D01*
X1281665Y811919D01*
X1281691Y812160D01*
Y807080D01*
D02*
G37*
G36*
X1325639Y806765D02*
X1325677Y806333D01*
X1325740Y805952D01*
X1325829Y805622D01*
X1325943Y805342D01*
X1326083Y805114D01*
X1326248Y804936D01*
X1326439Y804809D01*
X1326655Y804733D01*
X1326896Y804707D01*
X1321816D01*
X1322057Y804733D01*
X1322273Y804809D01*
X1322464Y804936D01*
X1322629Y805114D01*
X1322769Y805342D01*
X1322883Y805622D01*
X1322972Y805952D01*
X1323035Y806333D01*
X1323073Y806765D01*
X1323086Y807247D01*
X1325626D01*
X1325639Y806765D01*
D02*
G37*
G36*
X1051337Y809309D02*
X1051011Y808821D01*
X1050723Y808260D01*
X1050473Y807624D01*
X1050262Y806914D01*
X1050089Y806129D01*
X1049955Y805271D01*
X1049859Y804338D01*
X1049782Y802250D01*
X1039622D01*
X1039603Y803331D01*
X1039449Y805271D01*
X1039315Y806129D01*
X1039142Y806914D01*
X1038931Y807624D01*
X1038681Y808260D01*
X1038393Y808821D01*
X1038067Y809309D01*
X1037702Y809723D01*
X1051702D01*
X1051337Y809309D01*
D02*
G37*
G36*
X1271281Y791254D02*
X1271410Y791178D01*
X1271557Y791110D01*
X1271723Y791052D01*
X1271907Y791002D01*
X1272108Y790962D01*
X1272328Y790930D01*
X1272822Y790894D01*
X1273096Y790890D01*
X1273314Y788350D01*
X1273041Y788344D01*
X1272552Y788300D01*
X1272336Y788261D01*
X1272138Y788211D01*
X1271959Y788149D01*
X1271799Y788077D01*
X1271658Y787994D01*
X1271536Y787899D01*
X1271432Y787793D01*
X1271169Y791339D01*
X1271281Y791254D01*
D02*
G37*
G36*
X1281691Y787080D02*
X1281665Y787321D01*
X1281588Y787537D01*
X1281460Y787728D01*
X1281280Y787893D01*
X1281048Y788033D01*
X1280766Y788147D01*
X1280431Y788236D01*
X1280046Y788299D01*
X1279609Y788337D01*
X1279120Y788350D01*
Y790890D01*
X1279609Y790903D01*
X1280046Y790941D01*
X1280431Y791004D01*
X1280766Y791093D01*
X1281048Y791208D01*
X1281280Y791347D01*
X1281460Y791512D01*
X1281588Y791703D01*
X1281665Y791919D01*
X1281691Y792160D01*
Y787080D01*
D02*
G37*
G36*
X1321612Y789046D02*
X1322486Y788315D01*
X1322884Y788043D01*
X1323257Y787832D01*
X1323603Y787684D01*
X1323923Y787597D01*
X1324218Y787572D01*
X1324486Y787609D01*
X1324729Y787708D01*
X1320137Y785115D01*
X1320325Y785268D01*
X1320432Y785467D01*
X1320457Y785711D01*
X1320400Y786001D01*
X1320262Y786337D01*
X1320041Y786720D01*
X1319739Y787148D01*
X1319354Y787622D01*
X1318340Y788708D01*
X1321136Y789504D01*
X1321612Y789046D01*
D02*
G37*
G36*
X1126660Y782651D02*
X1126559Y783009D01*
X1126254Y783331D01*
X1125746Y783614D01*
X1125035Y783860D01*
X1124120Y784068D01*
X1123003Y784238D01*
X1120158Y784464D01*
X1116500Y784540D01*
Y794700D01*
X1118431Y794719D01*
X1124120Y795172D01*
X1125035Y795380D01*
X1125746Y795626D01*
X1126254Y795909D01*
X1126559Y796230D01*
X1126660Y796590D01*
Y782651D01*
D02*
G37*
G36*
X1326655Y781273D02*
X1326439Y781196D01*
X1326248Y781068D01*
X1326083Y780888D01*
X1325943Y780656D01*
X1325829Y780374D01*
X1325740Y780039D01*
X1325677Y779654D01*
X1325639Y779217D01*
X1325626Y778728D01*
X1323086D01*
X1323073Y779217D01*
X1323035Y779654D01*
X1322972Y780039D01*
X1322883Y780374D01*
X1322769Y780656D01*
X1322629Y780888D01*
X1322464Y781068D01*
X1322273Y781196D01*
X1322057Y781273D01*
X1321816Y781299D01*
X1326896D01*
X1326655Y781273D01*
D02*
G37*
G36*
X1325639Y772403D02*
X1325677Y771966D01*
X1325740Y771581D01*
X1325829Y771246D01*
X1325943Y770964D01*
X1326083Y770732D01*
X1326248Y770552D01*
X1326439Y770424D01*
X1326655Y770347D01*
X1326896Y770321D01*
X1321816D01*
X1322057Y770347D01*
X1322273Y770424D01*
X1322464Y770552D01*
X1322629Y770732D01*
X1322769Y770964D01*
X1322883Y771246D01*
X1322972Y771581D01*
X1323035Y771966D01*
X1323073Y772403D01*
X1323086Y772891D01*
X1325626D01*
X1325639Y772403D01*
D02*
G37*
G36*
X1306595Y771919D02*
X1306672Y771703D01*
X1306800Y771512D01*
X1306980Y771347D01*
X1307212Y771208D01*
X1307494Y771093D01*
X1307829Y771004D01*
X1308214Y770941D01*
X1308651Y770903D01*
X1309140Y770890D01*
Y768350D01*
X1308651Y768337D01*
X1308214Y768299D01*
X1307829Y768236D01*
X1307494Y768147D01*
X1307212Y768033D01*
X1306980Y767893D01*
X1306800Y767728D01*
X1306672Y767537D01*
X1306595Y767321D01*
X1306569Y767080D01*
Y772160D01*
X1306595Y771919D01*
D02*
G37*
G36*
X1126691Y767080D02*
X1126665Y767321D01*
X1126588Y767537D01*
X1126459Y767728D01*
X1126280Y767893D01*
X1126048Y768033D01*
X1125765Y768147D01*
X1125431Y768236D01*
X1125046Y768299D01*
X1124609Y768337D01*
X1124120Y768350D01*
Y770890D01*
X1124609Y770903D01*
X1125046Y770941D01*
X1125431Y771004D01*
X1125765Y771093D01*
X1126048Y771208D01*
X1126280Y771347D01*
X1126459Y771512D01*
X1126588Y771703D01*
X1126665Y771919D01*
X1126691Y772160D01*
Y767080D01*
D02*
G37*
G36*
X1264765Y751286D02*
X1264893Y751203D01*
X1265040Y751129D01*
X1265204Y751066D01*
X1265387Y751012D01*
X1265587Y750968D01*
X1265806Y750934D01*
X1266299Y750895D01*
X1266572Y750890D01*
X1266648Y748350D01*
X1266376Y748345D01*
X1265885Y748303D01*
X1265667Y748266D01*
X1265468Y748219D01*
X1265287Y748161D01*
X1265124Y748092D01*
X1264980Y748013D01*
X1264855Y747924D01*
X1264747Y747824D01*
X1264655Y751379D01*
X1264765Y751286D01*
D02*
G37*
G36*
X1281691Y747080D02*
X1281665Y747321D01*
X1281588Y747537D01*
X1281460Y747728D01*
X1281280Y747893D01*
X1281048Y748033D01*
X1280766Y748147D01*
X1280431Y748236D01*
X1280046Y748299D01*
X1279609Y748337D01*
X1279120Y748350D01*
Y750890D01*
X1279609Y750903D01*
X1280046Y750941D01*
X1280431Y751004D01*
X1280766Y751093D01*
X1281048Y751208D01*
X1281280Y751347D01*
X1281460Y751512D01*
X1281588Y751703D01*
X1281665Y751919D01*
X1281691Y752160D01*
Y747080D01*
D02*
G37*
G36*
X1126691D02*
X1126665Y747321D01*
X1126588Y747537D01*
X1126459Y747728D01*
X1126280Y747893D01*
X1126048Y748033D01*
X1125765Y748147D01*
X1125431Y748236D01*
X1125046Y748299D01*
X1124609Y748337D01*
X1124120Y748350D01*
Y750890D01*
X1124609Y750903D01*
X1125046Y750941D01*
X1125431Y751004D01*
X1125765Y751093D01*
X1126048Y751208D01*
X1126280Y751347D01*
X1126459Y751512D01*
X1126588Y751703D01*
X1126665Y751919D01*
X1126691Y752160D01*
Y747080D01*
D02*
G37*
G36*
X1264464Y731269D02*
X1264593Y731189D01*
X1264740Y731119D01*
X1264905Y731058D01*
X1265088Y731007D01*
X1265290Y730965D01*
X1265509Y730932D01*
X1266002Y730894D01*
X1266276Y730890D01*
X1266429Y728350D01*
X1266156Y728344D01*
X1265666Y728301D01*
X1265449Y728263D01*
X1265250Y728214D01*
X1265071Y728154D01*
X1264910Y728084D01*
X1264767Y728002D01*
X1264643Y727910D01*
X1264538Y727806D01*
X1264353Y731358D01*
X1264464Y731269D01*
D02*
G37*
G36*
X1281691Y727080D02*
X1281665Y727321D01*
X1281588Y727537D01*
X1281460Y727728D01*
X1281280Y727893D01*
X1281048Y728032D01*
X1280766Y728147D01*
X1280431Y728235D01*
X1280046Y728299D01*
X1279609Y728337D01*
X1279120Y728350D01*
Y730890D01*
X1279609Y730902D01*
X1280046Y730941D01*
X1280431Y731004D01*
X1280766Y731093D01*
X1281048Y731207D01*
X1281280Y731347D01*
X1281460Y731512D01*
X1281588Y731703D01*
X1281665Y731918D01*
X1281691Y732160D01*
Y727080D01*
D02*
G37*
G36*
X1321612Y718180D02*
X1322486Y717449D01*
X1322884Y717177D01*
X1323257Y716966D01*
X1323603Y716818D01*
X1323923Y716731D01*
X1324218Y716706D01*
X1324486Y716743D01*
X1324729Y716842D01*
X1320137Y714249D01*
X1320325Y714402D01*
X1320432Y714601D01*
X1320457Y714845D01*
X1320400Y715135D01*
X1320262Y715471D01*
X1320041Y715854D01*
X1319739Y716282D01*
X1319354Y716756D01*
X1318340Y717841D01*
X1321136Y718638D01*
X1321612Y718180D01*
D02*
G37*
G36*
X1253749Y712365D02*
X1253790Y711873D01*
X1253825Y711655D01*
X1253871Y711454D01*
X1253927Y711273D01*
X1253993Y711109D01*
X1254069Y710964D01*
X1254156Y710837D01*
X1254252Y710728D01*
X1250696D01*
X1250792Y710837D01*
X1250879Y710964D01*
X1250955Y711109D01*
X1251021Y711273D01*
X1251077Y711454D01*
X1251123Y711655D01*
X1251158Y711873D01*
X1251184Y712110D01*
X1251204Y712638D01*
X1253744D01*
X1253749Y712365D01*
D02*
G37*
G36*
X1326655Y710407D02*
X1326439Y710330D01*
X1326248Y710202D01*
X1326083Y710022D01*
X1325943Y709790D01*
X1325829Y709508D01*
X1325740Y709173D01*
X1325677Y708788D01*
X1325639Y708351D01*
X1325626Y707862D01*
X1323086D01*
X1323073Y708351D01*
X1323035Y708788D01*
X1322972Y709173D01*
X1322883Y709508D01*
X1322769Y709790D01*
X1322629Y710022D01*
X1322464Y710202D01*
X1322273Y710330D01*
X1322057Y710407D01*
X1321816Y710433D01*
X1326896D01*
X1326655Y710407D01*
D02*
G37*
G36*
X1281691Y707080D02*
X1281665Y707321D01*
X1281588Y707537D01*
X1281460Y707728D01*
X1281280Y707893D01*
X1281048Y708032D01*
X1280766Y708147D01*
X1280431Y708236D01*
X1280046Y708299D01*
X1279609Y708337D01*
X1279120Y708350D01*
Y710890D01*
X1279609Y710903D01*
X1280046Y710941D01*
X1280431Y711004D01*
X1280766Y711093D01*
X1281048Y711207D01*
X1281280Y711347D01*
X1281460Y711512D01*
X1281588Y711703D01*
X1281665Y711919D01*
X1281691Y712160D01*
Y707080D01*
D02*
G37*
G36*
X1325639Y701355D02*
X1325677Y700923D01*
X1325740Y700542D01*
X1325829Y700212D01*
X1325943Y699932D01*
X1326083Y699704D01*
X1326248Y699526D01*
X1326439Y699399D01*
X1326655Y699323D01*
X1326896Y699297D01*
X1321816D01*
X1322057Y699323D01*
X1322273Y699399D01*
X1322464Y699526D01*
X1322629Y699704D01*
X1322769Y699932D01*
X1322883Y700212D01*
X1322972Y700542D01*
X1323035Y700923D01*
X1323073Y701355D01*
X1323086Y701837D01*
X1325626D01*
X1325639Y701355D01*
D02*
G37*
G36*
X1306595Y691919D02*
X1306672Y691703D01*
X1306800Y691512D01*
X1306980Y691347D01*
X1307212Y691207D01*
X1307494Y691093D01*
X1307829Y691004D01*
X1308214Y690941D01*
X1308651Y690903D01*
X1309140Y690890D01*
Y688350D01*
X1308651Y688337D01*
X1308214Y688299D01*
X1307829Y688236D01*
X1307494Y688147D01*
X1307212Y688032D01*
X1306980Y687893D01*
X1306800Y687728D01*
X1306672Y687537D01*
X1306595Y687321D01*
X1306569Y687080D01*
Y692160D01*
X1306595Y691919D01*
D02*
G37*
G36*
X1257215Y687729D02*
X1257026Y687532D01*
X1256711Y687154D01*
X1256586Y686974D01*
X1256481Y686799D01*
X1256398Y686629D01*
X1256336Y686465D01*
X1256294Y686306D01*
X1256274Y686153D01*
X1256276Y686005D01*
X1253590Y688335D01*
X1253729Y688353D01*
X1253875Y688390D01*
X1254027Y688447D01*
X1254186Y688522D01*
X1254351Y688617D01*
X1254522Y688730D01*
X1254700Y688863D01*
X1255074Y689187D01*
X1255271Y689378D01*
X1257215Y687729D01*
D02*
G37*
G36*
X1328360Y678300D02*
X1328256Y678104D01*
X1328235Y677861D01*
X1328295Y677571D01*
X1328436Y677235D01*
X1328660Y676853D01*
X1328965Y676424D01*
X1329352Y675948D01*
X1330372Y674858D01*
X1327576Y674062D01*
X1327097Y674524D01*
X1326218Y675261D01*
X1325819Y675536D01*
X1325447Y675750D01*
X1325101Y675901D01*
X1324782Y675991D01*
X1324489Y676019D01*
X1324223Y675985D01*
X1323983Y675889D01*
X1328545Y678451D01*
X1328360Y678300D01*
D02*
G37*
G36*
X1324361Y671748D02*
X1331622Y664487D01*
Y646428D01*
X1327404D01*
Y637388D01*
X1324864D01*
Y634848D01*
X1314824D01*
Y628698D01*
X1313554D01*
Y608078D01*
X1319684D01*
Y601284D01*
X1316804D01*
Y587164D01*
X1331622D01*
Y584284D01*
X1316804D01*
Y577114D01*
X1316788Y577066D01*
X1316804Y576858D01*
Y576516D01*
X1316644Y576329D01*
X1310137Y569822D01*
X1294483D01*
Y587944D01*
X1297364D01*
Y602064D01*
X1281244D01*
Y587944D01*
X1284124D01*
Y569822D01*
X1271778D01*
Y582168D01*
X1268359D01*
Y586638D01*
X1278394D01*
Y596620D01*
Y606629D01*
Y606758D01*
X1281244D01*
Y604944D01*
X1297364D01*
Y619064D01*
X1294483D01*
Y629553D01*
X1317858Y652927D01*
X1318981Y654608D01*
X1319375Y656590D01*
Y672018D01*
X1323876D01*
X1323940Y672004D01*
X1324011Y672018D01*
X1324039D01*
X1324361Y671748D01*
D02*
G37*
G36*
X1247913Y671641D02*
X1247951Y671204D01*
X1248014Y670818D01*
X1248103Y670484D01*
X1248217Y670201D01*
X1248357Y669970D01*
X1248522Y669790D01*
X1248713Y669662D01*
X1248929Y669585D01*
X1249170Y669559D01*
X1244090D01*
X1244331Y669585D01*
X1244547Y669662D01*
X1244738Y669790D01*
X1244903Y669970D01*
X1245042Y670201D01*
X1245157Y670484D01*
X1245246Y670818D01*
X1245309Y671204D01*
X1245347Y671641D01*
X1245360Y672129D01*
X1247900D01*
X1247913Y671641D01*
D02*
G37*
G36*
X1227913D02*
X1227951Y671204D01*
X1228014Y670818D01*
X1228103Y670484D01*
X1228217Y670201D01*
X1228357Y669970D01*
X1228522Y669790D01*
X1228713Y669662D01*
X1228929Y669585D01*
X1229170Y669559D01*
X1224090D01*
X1224331Y669585D01*
X1224547Y669662D01*
X1224738Y669790D01*
X1224903Y669970D01*
X1225042Y670201D01*
X1225157Y670484D01*
X1225246Y670818D01*
X1225309Y671204D01*
X1225347Y671641D01*
X1225360Y672129D01*
X1227900D01*
X1227913Y671641D01*
D02*
G37*
G36*
X1296429Y662625D02*
X1296213Y662549D01*
X1296022Y662422D01*
X1295857Y662244D01*
X1295717Y662015D01*
X1295603Y661736D01*
X1295514Y661406D01*
X1295451Y661025D01*
X1295413Y660593D01*
X1295400Y660110D01*
X1292860D01*
X1292847Y660593D01*
X1292809Y661025D01*
X1292746Y661406D01*
X1292657Y661736D01*
X1292543Y662015D01*
X1292403Y662244D01*
X1292238Y662422D01*
X1292047Y662549D01*
X1291831Y662625D01*
X1291590Y662650D01*
X1296670D01*
X1296429Y662625D01*
D02*
G37*
G36*
X1076931Y665941D02*
X1076564Y665512D01*
X1076236Y665001D01*
X1075948Y664407D01*
X1075700Y663731D01*
X1075493Y662972D01*
X1075325Y662130D01*
X1075197Y661207D01*
X1075061Y659111D01*
X1075054Y657940D01*
X1067134Y665860D01*
X1068305Y665867D01*
X1070400Y666003D01*
X1071324Y666131D01*
X1072166Y666299D01*
X1072925Y666506D01*
X1073601Y666754D01*
X1074195Y667042D01*
X1074706Y667370D01*
X1075135Y667737D01*
X1076931Y665941D01*
D02*
G37*
G36*
X1049687Y656777D02*
X1049864Y654664D01*
X1050007Y653734D01*
X1050187Y652889D01*
X1050404Y652128D01*
X1050657Y651451D01*
X1050947Y650859D01*
X1051273Y650351D01*
X1051636Y649928D01*
X1049881Y648091D01*
X1049447Y648463D01*
X1048933Y648792D01*
X1048337Y649077D01*
X1047662Y649319D01*
X1046905Y649518D01*
X1046068Y649674D01*
X1045150Y649786D01*
X1044152Y649856D01*
X1041914Y649864D01*
X1049653Y657960D01*
X1049687Y656777D01*
D02*
G37*
G36*
X1268929Y644625D02*
X1268713Y644549D01*
X1268522Y644422D01*
X1268357Y644244D01*
X1268217Y644015D01*
X1268103Y643736D01*
X1268014Y643406D01*
X1267951Y643025D01*
X1267913Y642593D01*
X1267900Y642110D01*
X1265360D01*
X1265347Y642593D01*
X1265309Y643025D01*
X1265246Y643406D01*
X1265157Y643736D01*
X1265042Y644015D01*
X1264903Y644244D01*
X1264738Y644422D01*
X1264547Y644549D01*
X1264331Y644625D01*
X1264090Y644650D01*
X1269170D01*
X1268929Y644625D01*
D02*
G37*
G36*
X1122820Y738810D02*
Y718810D01*
Y698810D01*
Y678810D01*
Y658810D01*
X1155440D01*
X1155820Y657697D01*
Y640810D01*
X1171145D01*
X1171671Y639540D01*
X1148205Y616074D01*
X1148070Y615955D01*
X1147976Y615880D01*
X1147931D01*
X1147859Y615894D01*
X1147796Y615880D01*
X1140216D01*
Y613999D01*
X1133280D01*
Y615880D01*
X1117160D01*
Y601760D01*
X1133280D01*
Y603641D01*
X1140216D01*
Y601760D01*
X1145939D01*
X1146022Y600490D01*
X1145955Y600481D01*
X1143793Y599585D01*
X1142873Y598880D01*
X1140216D01*
Y596655D01*
X1134184Y590409D01*
X1133280Y589505D01*
X1132010Y590031D01*
Y597610D01*
X1127760D01*
Y591820D01*
X1125220D01*
Y589280D01*
X1118430D01*
Y588595D01*
X1069752D01*
X1050621Y607726D01*
Y621628D01*
X1050638Y623102D01*
X1050693Y624328D01*
X1050751Y624916D01*
X1051970Y626504D01*
X1053160Y629377D01*
X1053566Y632460D01*
X1053160Y635543D01*
X1051970Y638416D01*
X1050468Y640374D01*
X1051348Y641313D01*
X1052372Y640629D01*
X1054354Y640235D01*
X1054354Y640235D01*
X1058133D01*
X1058760Y638965D01*
X1057847Y637775D01*
X1056785Y635211D01*
X1056757Y635000D01*
X1077351D01*
X1077323Y635211D01*
X1076261Y637775D01*
X1075348Y638965D01*
X1075975Y640235D01*
X1084580D01*
X1086562Y640629D01*
X1088242Y641751D01*
X1097641Y651150D01*
X1098763Y652830D01*
X1099157Y654812D01*
Y738011D01*
X1105587Y744441D01*
X1122820D01*
Y738810D01*
D02*
G37*
G36*
X1038128Y643177D02*
X1040900Y640759D01*
X1041177Y640592D01*
X1041402Y640492D01*
X1041574Y640460D01*
X1033654Y632540D01*
X1033622Y632712D01*
X1033522Y632937D01*
X1033355Y633214D01*
X1033121Y633544D01*
X1032449Y634363D01*
X1031508Y635392D01*
X1030298Y636632D01*
X1037482Y643816D01*
X1038128Y643177D01*
D02*
G37*
G36*
X1261148Y630679D02*
X1247715Y617245D01*
X1245770D01*
X1245548Y617290D01*
X1245326Y617245D01*
X1237728D01*
X1237506Y617290D01*
X1237406Y617270D01*
X1237306Y617285D01*
X1236550Y617245D01*
X1233666D01*
Y617183D01*
X1229800D01*
Y618681D01*
X1229800Y619064D01*
X1230424Y620076D01*
X1231596Y620309D01*
X1233277Y621432D01*
X1234026Y622554D01*
X1225201D01*
X1225952Y621432D01*
X1227594Y620334D01*
X1227617Y620232D01*
X1227383Y619064D01*
X1213680D01*
Y604944D01*
X1229800D01*
Y606824D01*
X1233666D01*
Y606629D01*
X1233939D01*
X1234936Y605967D01*
X1234936Y605359D01*
Y604469D01*
X1241527D01*
X1248119D01*
Y605359D01*
X1248119Y605967D01*
X1249115Y606629D01*
X1249389D01*
Y606758D01*
X1249731D01*
X1251713Y607152D01*
X1253393Y608275D01*
X1261401Y616282D01*
X1262671Y615756D01*
Y606162D01*
X1262273Y605896D01*
X1259517Y603140D01*
X1258394Y601460D01*
X1258000Y599477D01*
Y582168D01*
X1255014D01*
Y580898D01*
X1250696D01*
Y574548D01*
X1248156D01*
Y572008D01*
X1241044D01*
Y569822D01*
X1210208D01*
X1208808Y569882D01*
X1206210Y570136D01*
X1206183Y570141D01*
X1206167Y570219D01*
X1206025Y571271D01*
X1205836Y574288D01*
X1205826Y575107D01*
X1205835Y575869D01*
X1206013Y578900D01*
X1206149Y579967D01*
X1206231Y580396D01*
X1208158D01*
Y583860D01*
X1210293Y584026D01*
X1215942D01*
X1217924Y584421D01*
X1219604Y585544D01*
X1221800Y587739D01*
X1221934Y587857D01*
X1222018Y587923D01*
X1222137Y587900D01*
X1222352Y587944D01*
X1229800D01*
Y602064D01*
X1213680D01*
Y594894D01*
X1213664Y594846D01*
X1212493Y594385D01*
X1210208D01*
X1208808Y594445D01*
X1208158Y594509D01*
Y598016D01*
X1198038D01*
X1196848Y598173D01*
X1179068D01*
Y600846D01*
X1177798D01*
Y605164D01*
X1171448D01*
X1165098D01*
Y600846D01*
X1163828D01*
Y600846D01*
X1162990Y600286D01*
X1162519Y600481D01*
X1160198Y600787D01*
X1157052D01*
X1156336Y601760D01*
Y609530D01*
X1156486Y609705D01*
X1178633Y631852D01*
X1213756D01*
X1213881Y630583D01*
X1212900Y630387D01*
X1211219Y629264D01*
X1210470Y628142D01*
X1219295D01*
X1218544Y629264D01*
X1216864Y630387D01*
X1215883Y630583D01*
X1216008Y631852D01*
X1260662D01*
X1261148Y630679D01*
D02*
G37*
G36*
X1047155Y626603D02*
X1047067Y626373D01*
X1046989Y626059D01*
X1046921Y625659D01*
X1046817Y624606D01*
X1046755Y623213D01*
X1046734Y621480D01*
X1036574D01*
X1036569Y622389D01*
X1036319Y626059D01*
X1036241Y626373D01*
X1036153Y626603D01*
X1036054Y626747D01*
X1047254D01*
X1047155Y626603D01*
D02*
G37*
G36*
X1290587Y617275D02*
X1290625Y616838D01*
X1290688Y616453D01*
X1290777Y616118D01*
X1290892Y615836D01*
X1291031Y615604D01*
X1291196Y615424D01*
X1291387Y615296D01*
X1291603Y615219D01*
X1291844Y615193D01*
X1286764D01*
X1287005Y615219D01*
X1287221Y615296D01*
X1287412Y615424D01*
X1287577Y615604D01*
X1287717Y615836D01*
X1287831Y616118D01*
X1287920Y616453D01*
X1287983Y616838D01*
X1288021Y617275D01*
X1288034Y617763D01*
X1290574D01*
X1290587Y617275D01*
D02*
G37*
G36*
X1154292Y613040D02*
X1153741Y612471D01*
X1152885Y611474D01*
X1152580Y611045D01*
X1152356Y610663D01*
X1152215Y610327D01*
X1152154Y610037D01*
X1152176Y609794D01*
X1152280Y609598D01*
X1152465Y609447D01*
X1147903Y612009D01*
X1148143Y611913D01*
X1148409Y611879D01*
X1148701Y611907D01*
X1149021Y611996D01*
X1149367Y612148D01*
X1149739Y612362D01*
X1150138Y612637D01*
X1150564Y612975D01*
X1151016Y613374D01*
X1151496Y613836D01*
X1154292Y613040D01*
D02*
G37*
G36*
X1274579Y613367D02*
X1274656Y613334D01*
X1274783Y613304D01*
X1274960Y613278D01*
X1275468Y613239D01*
X1277094Y613207D01*
Y610667D01*
X1276611Y610665D01*
X1274656Y610540D01*
X1274579Y610507D01*
X1274554Y610469D01*
Y613405D01*
X1274579Y613367D01*
D02*
G37*
G36*
X1245574D02*
X1245650Y613334D01*
X1245777Y613304D01*
X1245955Y613278D01*
X1246463Y613239D01*
X1248088Y613207D01*
Y610667D01*
X1247606Y610665D01*
X1245650Y610540D01*
X1245574Y610507D01*
X1245548Y610469D01*
Y613405D01*
X1245574Y613367D01*
D02*
G37*
G36*
X1237506Y610469D02*
X1237481Y610519D01*
X1237404Y610564D01*
X1237277Y610604D01*
X1237100Y610639D01*
X1236871Y610668D01*
X1236261Y610710D01*
X1234966Y610734D01*
Y613274D01*
X1237506Y613405D01*
Y610469D01*
D02*
G37*
G36*
X1225955Y614303D02*
X1226032Y614087D01*
X1226160Y613896D01*
X1226340Y613731D01*
X1226572Y613591D01*
X1226854Y613477D01*
X1227189Y613388D01*
X1227574Y613325D01*
X1228011Y613287D01*
X1228500Y613274D01*
Y610734D01*
X1228011Y610721D01*
X1227574Y610683D01*
X1227189Y610620D01*
X1226854Y610531D01*
X1226572Y610416D01*
X1226340Y610277D01*
X1226160Y610112D01*
X1226032Y609921D01*
X1225955Y609705D01*
X1225929Y609464D01*
Y614544D01*
X1225955Y614303D01*
D02*
G37*
G36*
X1285115Y609397D02*
X1285089Y609638D01*
X1285012Y609854D01*
X1284884Y610045D01*
X1284704Y610210D01*
X1284472Y610350D01*
X1284190Y610464D01*
X1283855Y610553D01*
X1283470Y610616D01*
X1283033Y610654D01*
X1282545Y610667D01*
Y613207D01*
X1283033Y613220D01*
X1283470Y613258D01*
X1283855Y613321D01*
X1284190Y613410D01*
X1284472Y613525D01*
X1284704Y613664D01*
X1284884Y613829D01*
X1285012Y614020D01*
X1285089Y614236D01*
X1285115Y614477D01*
Y609397D01*
D02*
G37*
G36*
X1327163Y611923D02*
X1326947Y611846D01*
X1326756Y611718D01*
X1326591Y611538D01*
X1326452Y611306D01*
X1326337Y611024D01*
X1326248Y610689D01*
X1326185Y610304D01*
X1326147Y609867D01*
X1326134Y609379D01*
X1323594D01*
X1323581Y609867D01*
X1323543Y610304D01*
X1323480Y610689D01*
X1323391Y611024D01*
X1323277Y611306D01*
X1323137Y611538D01*
X1322972Y611718D01*
X1322781Y611846D01*
X1322565Y611923D01*
X1322324Y611949D01*
X1327404D01*
X1327163Y611923D01*
D02*
G37*
G36*
X1144087Y606280D02*
X1144061Y606521D01*
X1143984Y606737D01*
X1143856Y606928D01*
X1143676Y607093D01*
X1143444Y607233D01*
X1143161Y607347D01*
X1142827Y607436D01*
X1142442Y607499D01*
X1142005Y607537D01*
X1141516Y607550D01*
Y610090D01*
X1142005Y610103D01*
X1142442Y610141D01*
X1142827Y610204D01*
X1143161Y610293D01*
X1143444Y610407D01*
X1143676Y610547D01*
X1143856Y610712D01*
X1143984Y610903D01*
X1144061Y611119D01*
X1144087Y611360D01*
Y606280D01*
D02*
G37*
G36*
X1129435Y611119D02*
X1129512Y610903D01*
X1129640Y610712D01*
X1129820Y610547D01*
X1130052Y610407D01*
X1130334Y610293D01*
X1130669Y610204D01*
X1131054Y610141D01*
X1131491Y610103D01*
X1131980Y610090D01*
Y607550D01*
X1131491Y607537D01*
X1131054Y607499D01*
X1130669Y607436D01*
X1130334Y607347D01*
X1130052Y607233D01*
X1129820Y607093D01*
X1129640Y606928D01*
X1129512Y606737D01*
X1129435Y606521D01*
X1129409Y606280D01*
Y611360D01*
X1129435Y611119D01*
D02*
G37*
G36*
X1326147Y599495D02*
X1326185Y599058D01*
X1326248Y598673D01*
X1326337Y598338D01*
X1326452Y598056D01*
X1326591Y597824D01*
X1326756Y597644D01*
X1326947Y597516D01*
X1327163Y597439D01*
X1327404Y597413D01*
X1322324D01*
X1322565Y597439D01*
X1322781Y597516D01*
X1322972Y597644D01*
X1323137Y597824D01*
X1323277Y598056D01*
X1323391Y598338D01*
X1323480Y598673D01*
X1323543Y599058D01*
X1323581Y599495D01*
X1323594Y599983D01*
X1326134D01*
X1326147Y599495D01*
D02*
G37*
G36*
X1222113Y591785D02*
X1221870Y591883D01*
X1221601Y591920D01*
X1221307Y591895D01*
X1220987Y591808D01*
X1220640Y591660D01*
X1220268Y591449D01*
X1219870Y591177D01*
X1219446Y590842D01*
X1218996Y590446D01*
X1218521Y589988D01*
X1215724Y590784D01*
X1216272Y591350D01*
X1217123Y592344D01*
X1217425Y592772D01*
X1217645Y593155D01*
X1217784Y593491D01*
X1217841Y593781D01*
X1217816Y594025D01*
X1217709Y594224D01*
X1217521Y594377D01*
X1222113Y591785D01*
D02*
G37*
G36*
X1291603Y591759D02*
X1291387Y591683D01*
X1291196Y591556D01*
X1291031Y591378D01*
X1290892Y591149D01*
X1290777Y590870D01*
X1290688Y590540D01*
X1290625Y590159D01*
X1290587Y589727D01*
X1290574Y589244D01*
X1288034D01*
X1288021Y589727D01*
X1287983Y590159D01*
X1287920Y590540D01*
X1287831Y590870D01*
X1287717Y591149D01*
X1287577Y591378D01*
X1287412Y591556D01*
X1287221Y591683D01*
X1287005Y591759D01*
X1286764Y591785D01*
X1291844D01*
X1291603Y591759D01*
D02*
G37*
G36*
X1200972Y592359D02*
X1201642Y591964D01*
X1202449Y591615D01*
X1203393Y591313D01*
X1204287Y591101D01*
Y591746D01*
X1204313Y591505D01*
X1204390Y591289D01*
X1204518Y591098D01*
X1204584Y591038D01*
X1205691Y590848D01*
X1208535Y590569D01*
X1210163Y590499D01*
X1211927Y590476D01*
Y587936D01*
X1210163Y587913D01*
X1205691Y587564D01*
X1204584Y587374D01*
X1204518Y587314D01*
X1204390Y587123D01*
X1204313Y586907D01*
X1204287Y586666D01*
Y587311D01*
X1203393Y587099D01*
X1202449Y586797D01*
X1201642Y586448D01*
X1200972Y586053D01*
X1200438Y585612D01*
Y592800D01*
X1200972Y592359D01*
D02*
G37*
G36*
X1264462Y580379D02*
X1264500Y579942D01*
X1264564Y579557D01*
X1264652Y579222D01*
X1264767Y578940D01*
X1264906Y578708D01*
X1265072Y578528D01*
X1265262Y578400D01*
X1265478Y578323D01*
X1265719Y578297D01*
X1260639D01*
X1260881Y578323D01*
X1261096Y578400D01*
X1261287Y578528D01*
X1261452Y578708D01*
X1261592Y578940D01*
X1261706Y579222D01*
X1261795Y579557D01*
X1261859Y579942D01*
X1261897Y580379D01*
X1261909Y580868D01*
X1264449D01*
X1264462Y580379D01*
D02*
G37*
G36*
X1152495Y588601D02*
X1152339Y588493D01*
X1151973Y588169D01*
X1143514Y579872D01*
X1141464Y577824D01*
X1136872Y587601D01*
X1144056Y595040D01*
X1152495Y588601D01*
D02*
G37*
G36*
X1325237Y574005D02*
X1324994Y574103D01*
X1324725Y574140D01*
X1324431Y574115D01*
X1324111Y574028D01*
X1323764Y573880D01*
X1323392Y573669D01*
X1322994Y573397D01*
X1322570Y573062D01*
X1322120Y572666D01*
X1321644Y572208D01*
X1318848Y573004D01*
X1319396Y573570D01*
X1320247Y574564D01*
X1320549Y574992D01*
X1320770Y575375D01*
X1320908Y575711D01*
X1320965Y576001D01*
X1320940Y576245D01*
X1320833Y576444D01*
X1320645Y576597D01*
X1325237Y574005D01*
D02*
G37*
G36*
X1290599Y567969D02*
X1290676Y567538D01*
X1290803Y567157D01*
X1290980Y566826D01*
X1291209Y566547D01*
X1291488Y566318D01*
X1291819Y566141D01*
X1292200Y566014D01*
X1292631Y565937D01*
X1293114Y565912D01*
X1289304Y563372D01*
X1285494Y565912D01*
X1285977Y565937D01*
X1286408Y566014D01*
X1286789Y566141D01*
X1287120Y566318D01*
X1287399Y566547D01*
X1287628Y566826D01*
X1287805Y567157D01*
X1287932Y567538D01*
X1288009Y567969D01*
X1288034Y568452D01*
X1290574D01*
X1290599Y567969D01*
D02*
G37*
G36*
X1265695Y570743D02*
X1265479Y570667D01*
X1265288Y570540D01*
X1265123Y570362D01*
X1264984Y570134D01*
X1264869Y569854D01*
X1264780Y569524D01*
X1264717Y569143D01*
X1264679Y568711D01*
X1264670Y568377D01*
X1264691Y567969D01*
X1264768Y567538D01*
X1264895Y567157D01*
X1265072Y566826D01*
X1265301Y566547D01*
X1265580Y566318D01*
X1265911Y566141D01*
X1266292Y566014D01*
X1266723Y565937D01*
X1267206Y565912D01*
X1263396Y563372D01*
X1259586Y565912D01*
X1260069Y565937D01*
X1260500Y566014D01*
X1260881Y566141D01*
X1261212Y566318D01*
X1261491Y566547D01*
X1261720Y566826D01*
X1261897Y567157D01*
X1262024Y567538D01*
X1262101Y567969D01*
X1262122Y568377D01*
X1262113Y568711D01*
X1262075Y569143D01*
X1262012Y569524D01*
X1261923Y569854D01*
X1261808Y570134D01*
X1261669Y570362D01*
X1261504Y570540D01*
X1261313Y570667D01*
X1261097Y570743D01*
X1260856Y570769D01*
X1265936D01*
X1265695Y570743D01*
D02*
G37*
G36*
X1203864Y584135D02*
X1203457Y583830D01*
X1203099Y583322D01*
X1202788Y582611D01*
X1202525Y581697D01*
X1202310Y580579D01*
X1202143Y579258D01*
X1201952Y576007D01*
X1201941Y575105D01*
X1201953Y574142D01*
X1202157Y570890D01*
X1202334Y569570D01*
X1202563Y568452D01*
X1202842Y567538D01*
X1203173Y566826D01*
X1203179Y566817D01*
X1203393Y566749D01*
X1204474Y566493D01*
X1205691Y566284D01*
X1208535Y566005D01*
X1210163Y565935D01*
X1211927Y565912D01*
Y563372D01*
X1210163Y563349D01*
X1205691Y563000D01*
X1204474Y562791D01*
X1203393Y562535D01*
X1203179Y562467D01*
X1203173Y562458D01*
X1202842Y561746D01*
X1202563Y560832D01*
X1202334Y559714D01*
X1201953Y555142D01*
X1201928Y553212D01*
X1191768Y564642D01*
X1200154Y574076D01*
X1191768D01*
X1191744Y576007D01*
X1191386Y580579D01*
X1191171Y581697D01*
X1190908Y582611D01*
X1190597Y583322D01*
X1190239Y583830D01*
X1189833Y584135D01*
X1189379Y584236D01*
X1204317D01*
X1203864Y584135D01*
D02*
G37*
G36*
X1088687Y534105D02*
X1088817Y533512D01*
X1089034Y532889D01*
X1089337Y532235D01*
X1089726Y531552D01*
X1090203Y530838D01*
X1090766Y530094D01*
X1092151Y528517D01*
X1092974Y527683D01*
X1081774D01*
X1082597Y528517D01*
X1083982Y530094D01*
X1084545Y530838D01*
X1085022Y531552D01*
X1085411Y532235D01*
X1085714Y532889D01*
X1085931Y533512D01*
X1086061Y534105D01*
X1086104Y534669D01*
X1088644D01*
X1088687Y534105D01*
D02*
G37*
G36*
X1330173Y510243D02*
X1329984Y510046D01*
X1329665Y509670D01*
X1329535Y509490D01*
X1329426Y509316D01*
X1329337Y509148D01*
X1329268Y508986D01*
X1329219Y508829D01*
X1329191Y508679D01*
X1329182Y508533D01*
X1326667Y511048D01*
X1326812Y511057D01*
X1326963Y511085D01*
X1327120Y511134D01*
X1327282Y511203D01*
X1327451Y511292D01*
X1327624Y511401D01*
X1327804Y511531D01*
X1327989Y511680D01*
X1328377Y512039D01*
X1330173Y510243D01*
D02*
G37*
G36*
X1261161Y345853D02*
X1261313Y344121D01*
X1261567Y342592D01*
X1261923Y341268D01*
X1262380Y340147D01*
X1262939Y339230D01*
X1263599Y338516D01*
X1264361Y338007D01*
X1265225Y337701D01*
X1266190Y337599D01*
X1245870D01*
X1246835Y337701D01*
X1247699Y338007D01*
X1248461Y338516D01*
X1249121Y339230D01*
X1249680Y340147D01*
X1250137Y341268D01*
X1250493Y342592D01*
X1250747Y344121D01*
X1250899Y345853D01*
X1250950Y347789D01*
X1261110D01*
X1261161Y345853D01*
D02*
G37*
%LPC*%
G36*
X1038860Y888587D02*
Y886714D01*
X1040732D01*
X1039983Y887837D01*
X1038860Y888587D01*
D02*
G37*
G36*
X1033780D02*
X1032657Y887837D01*
X1031908Y886714D01*
X1033780D01*
Y888587D01*
D02*
G37*
G36*
X1062228Y888079D02*
Y886206D01*
X1064100D01*
X1063351Y887328D01*
X1062228Y888079D01*
D02*
G37*
G36*
X1057148D02*
X1056025Y887328D01*
X1055275Y886206D01*
X1057148D01*
Y888079D01*
D02*
G37*
G36*
X1040732Y881634D02*
X1038860D01*
Y879762D01*
X1039983Y880511D01*
X1040732Y881634D01*
D02*
G37*
G36*
X1033780D02*
X1031908D01*
X1032657Y880511D01*
X1033780Y879762D01*
Y881634D01*
D02*
G37*
G36*
X1064100Y881126D02*
X1062228D01*
Y879253D01*
X1063351Y880004D01*
X1064100Y881126D01*
D02*
G37*
G36*
X1057148D02*
X1055275D01*
X1056025Y880004D01*
X1057148Y879253D01*
Y881126D01*
D02*
G37*
G36*
X1021842Y872373D02*
Y864616D01*
X1029599D01*
X1029571Y864827D01*
X1028509Y867392D01*
X1026819Y869593D01*
X1024617Y871283D01*
X1022054Y872345D01*
X1021842Y872373D01*
D02*
G37*
G36*
X1016762D02*
X1016551Y872345D01*
X1013987Y871283D01*
X1011785Y869593D01*
X1010095Y867392D01*
X1009033Y864827D01*
X1009005Y864616D01*
X1016762D01*
Y872373D01*
D02*
G37*
G36*
X1029599Y859536D02*
X1021842D01*
Y851779D01*
X1022054Y851807D01*
X1024617Y852869D01*
X1026819Y854559D01*
X1028509Y856760D01*
X1029571Y859324D01*
X1029599Y859536D01*
D02*
G37*
G36*
X1016762D02*
X1009005D01*
X1009033Y859324D01*
X1010095Y856760D01*
X1011785Y854559D01*
X1013987Y852869D01*
X1016551Y851807D01*
X1016762Y851779D01*
Y859536D01*
D02*
G37*
G36*
X1081912Y873886D02*
X1058292D01*
Y850266D01*
X1081912D01*
Y873886D01*
D02*
G37*
G36*
X1044702Y873988D02*
X1041619Y873582D01*
X1038746Y872392D01*
X1036279Y870499D01*
X1034386Y868032D01*
X1033196Y865159D01*
X1032790Y862076D01*
X1033196Y858993D01*
X1034386Y856120D01*
X1036279Y853653D01*
X1038746Y851760D01*
X1041619Y850570D01*
X1044702Y850164D01*
X1047785Y850570D01*
X1050658Y851760D01*
X1053125Y853653D01*
X1055018Y856120D01*
X1056208Y858993D01*
X1056614Y862076D01*
X1056208Y865159D01*
X1055018Y868032D01*
X1053125Y870499D01*
X1050658Y872392D01*
X1047785Y873582D01*
X1044702Y873988D01*
D02*
G37*
G36*
X1034034Y843120D02*
Y841248D01*
X1035907D01*
X1035156Y842371D01*
X1034034Y843120D01*
D02*
G37*
G36*
X1028954D02*
X1027831Y842371D01*
X1027082Y841248D01*
X1028954D01*
Y843120D01*
D02*
G37*
G36*
X1035907Y836168D02*
X1034034D01*
Y834296D01*
X1035156Y835045D01*
X1035907Y836168D01*
D02*
G37*
G36*
X1028954D02*
X1027082D01*
X1027831Y835045D01*
X1028954Y834296D01*
Y836168D01*
D02*
G37*
G36*
X1016762Y829404D02*
X1006762D01*
Y819404D01*
X1016762D01*
Y829404D01*
D02*
G37*
G36*
X1070102Y818483D02*
Y816610D01*
X1071974D01*
X1071225Y817732D01*
X1070102Y818483D01*
D02*
G37*
G36*
X1065022D02*
X1063900Y817732D01*
X1063149Y816610D01*
X1065022D01*
Y818483D01*
D02*
G37*
G36*
X1071974Y811530D02*
X1070102D01*
Y809658D01*
X1071225Y810407D01*
X1071974Y811530D01*
D02*
G37*
G36*
X1065022D02*
X1063149D01*
X1063900Y810407D01*
X1065022Y809658D01*
Y811530D01*
D02*
G37*
G36*
X1016762Y814324D02*
X1006762D01*
Y804324D01*
X1016762D01*
Y814324D01*
D02*
G37*
G36*
X1336040Y778351D02*
X1334917Y777600D01*
X1334167Y776478D01*
X1336040D01*
Y778351D01*
D02*
G37*
G36*
Y771398D02*
X1334167D01*
X1334917Y770275D01*
X1336040Y769526D01*
Y771398D01*
D02*
G37*
G36*
Y761841D02*
X1334917Y761090D01*
X1334167Y759968D01*
X1336040D01*
Y761841D01*
D02*
G37*
G36*
Y754888D02*
X1334167D01*
X1334917Y753765D01*
X1336040Y753016D01*
Y754888D01*
D02*
G37*
G36*
Y747870D02*
X1334917Y747121D01*
X1334167Y745998D01*
X1336040D01*
Y747870D01*
D02*
G37*
G36*
X1330706Y748030D02*
X1326896D01*
Y743458D01*
X1330706D01*
Y748030D01*
D02*
G37*
G36*
X1336040Y740918D02*
X1334167D01*
X1334917Y739796D01*
X1336040Y739045D01*
Y740918D01*
D02*
G37*
G36*
X1331146Y736412D02*
X1326896D01*
Y733162D01*
X1331146D01*
Y736412D01*
D02*
G37*
G36*
Y728082D02*
X1326896D01*
Y724832D01*
X1331146D01*
Y728082D01*
D02*
G37*
G36*
X1243584Y557667D02*
Y549910D01*
X1251341D01*
X1251313Y550121D01*
X1250251Y552686D01*
X1248561Y554887D01*
X1246359Y556577D01*
X1243795Y557639D01*
X1243584Y557667D01*
D02*
G37*
G36*
X1102614D02*
Y549910D01*
X1110371D01*
X1110343Y550121D01*
X1109281Y552686D01*
X1107591Y554887D01*
X1105389Y556577D01*
X1102825Y557639D01*
X1102614Y557667D01*
D02*
G37*
G36*
X1238504D02*
X1238292Y557639D01*
X1235729Y556577D01*
X1233527Y554887D01*
X1231837Y552686D01*
X1230775Y550121D01*
X1230747Y549910D01*
X1238504D01*
Y557667D01*
D02*
G37*
G36*
X1251341Y544830D02*
X1243584D01*
Y537073D01*
X1243795Y537101D01*
X1246359Y538163D01*
X1248561Y539853D01*
X1250251Y542054D01*
X1251313Y544618D01*
X1251341Y544830D01*
D02*
G37*
G36*
X1110371D02*
X1102614D01*
Y537073D01*
X1102825Y537101D01*
X1105389Y538163D01*
X1107591Y539853D01*
X1109281Y542054D01*
X1110343Y544618D01*
X1110371Y544830D01*
D02*
G37*
G36*
X1238504D02*
X1230747D01*
X1230775Y544618D01*
X1231837Y542054D01*
X1233527Y539853D01*
X1235729Y538163D01*
X1238292Y537101D01*
X1238504Y537073D01*
Y544830D01*
D02*
G37*
G36*
X1125474Y559282D02*
X1122391Y558876D01*
X1119518Y557686D01*
X1117051Y555793D01*
X1115158Y553326D01*
X1113968Y550453D01*
X1113562Y547370D01*
X1113968Y544287D01*
X1115158Y541414D01*
X1117051Y538947D01*
X1119518Y537054D01*
X1122391Y535864D01*
X1125474Y535458D01*
X1128557Y535864D01*
X1131430Y537054D01*
X1133897Y538947D01*
X1135790Y541414D01*
X1136980Y544287D01*
X1137386Y547370D01*
X1136980Y550453D01*
X1135790Y553326D01*
X1133897Y555793D01*
X1131430Y557686D01*
X1128557Y558876D01*
X1125474Y559282D01*
D02*
G37*
G36*
X1279144Y533882D02*
X1276061Y533476D01*
X1273188Y532286D01*
X1270721Y530393D01*
X1268828Y527926D01*
X1267638Y525053D01*
X1267232Y521970D01*
X1267638Y518887D01*
X1268828Y516014D01*
X1270721Y513547D01*
X1273188Y511654D01*
X1276061Y510464D01*
X1279144Y510058D01*
X1282227Y510464D01*
X1285100Y511654D01*
X1287567Y513547D01*
X1289460Y516014D01*
X1290650Y518887D01*
X1291056Y521970D01*
X1290650Y525053D01*
X1289460Y527926D01*
X1287567Y530393D01*
X1285100Y532286D01*
X1282227Y533476D01*
X1279144Y533882D01*
D02*
G37*
G36*
X1253744D02*
X1250661Y533476D01*
X1247788Y532286D01*
X1245321Y530393D01*
X1243428Y527926D01*
X1242238Y525053D01*
X1241832Y521970D01*
X1242238Y518887D01*
X1243428Y516014D01*
X1245321Y513547D01*
X1247788Y511654D01*
X1250661Y510464D01*
X1253744Y510058D01*
X1256827Y510464D01*
X1259700Y511654D01*
X1262167Y513547D01*
X1264060Y516014D01*
X1265250Y518887D01*
X1265656Y521970D01*
X1265250Y525053D01*
X1264060Y527926D01*
X1262167Y530393D01*
X1259700Y532286D01*
X1256827Y533476D01*
X1253744Y533882D01*
D02*
G37*
G36*
X1228344D02*
X1225261Y533476D01*
X1222388Y532286D01*
X1219921Y530393D01*
X1218028Y527926D01*
X1216838Y525053D01*
X1216432Y521970D01*
X1216838Y518887D01*
X1218028Y516014D01*
X1219921Y513547D01*
X1222388Y511654D01*
X1225261Y510464D01*
X1228344Y510058D01*
X1231427Y510464D01*
X1234300Y511654D01*
X1236767Y513547D01*
X1238660Y516014D01*
X1239850Y518887D01*
X1240256Y521970D01*
X1239850Y525053D01*
X1238660Y527926D01*
X1236767Y530393D01*
X1234300Y532286D01*
X1231427Y533476D01*
X1228344Y533882D01*
D02*
G37*
G36*
X1138174D02*
X1135091Y533476D01*
X1132218Y532286D01*
X1129751Y530393D01*
X1127858Y527926D01*
X1126668Y525053D01*
X1126262Y521970D01*
X1126668Y518887D01*
X1127858Y516014D01*
X1129751Y513547D01*
X1132218Y511654D01*
X1135091Y510464D01*
X1138174Y510058D01*
X1141257Y510464D01*
X1144130Y511654D01*
X1146597Y513547D01*
X1148490Y516014D01*
X1149680Y518887D01*
X1150086Y521970D01*
X1149680Y525053D01*
X1148490Y527926D01*
X1146597Y530393D01*
X1144130Y532286D01*
X1141257Y533476D01*
X1138174Y533882D01*
D02*
G37*
G36*
X1112774D02*
X1109691Y533476D01*
X1106818Y532286D01*
X1104351Y530393D01*
X1102458Y527926D01*
X1101268Y525053D01*
X1100862Y521970D01*
X1101268Y518887D01*
X1102458Y516014D01*
X1104351Y513547D01*
X1106818Y511654D01*
X1109691Y510464D01*
X1112774Y510058D01*
X1115857Y510464D01*
X1118730Y511654D01*
X1121197Y513547D01*
X1123090Y516014D01*
X1124280Y518887D01*
X1124686Y521970D01*
X1124280Y525053D01*
X1123090Y527926D01*
X1121197Y530393D01*
X1118730Y532286D01*
X1115857Y533476D01*
X1112774Y533882D01*
D02*
G37*
G36*
X1260602Y501236D02*
Y499364D01*
X1262475D01*
X1261724Y500486D01*
X1260602Y501236D01*
D02*
G37*
G36*
X1255522D02*
X1254399Y500486D01*
X1253650Y499364D01*
X1255522D01*
Y501236D01*
D02*
G37*
G36*
X1248410D02*
Y499364D01*
X1250283D01*
X1249532Y500486D01*
X1248410Y501236D01*
D02*
G37*
G36*
X1243330D02*
X1242207Y500486D01*
X1241458Y499364D01*
X1243330D01*
Y501236D01*
D02*
G37*
G36*
X1273556Y500983D02*
Y499110D01*
X1275428D01*
X1274678Y500233D01*
X1273556Y500983D01*
D02*
G37*
G36*
X1268476D02*
X1267354Y500233D01*
X1266603Y499110D01*
X1268476D01*
Y500983D01*
D02*
G37*
G36*
X1287018Y500728D02*
Y498856D01*
X1288891D01*
X1288141Y499978D01*
X1287018Y500728D01*
D02*
G37*
G36*
X1281938D02*
X1280815Y499978D01*
X1280065Y498856D01*
X1281938D01*
Y500728D01*
D02*
G37*
G36*
X1262475Y494284D02*
X1260602D01*
Y492411D01*
X1261724Y493162D01*
X1262475Y494284D01*
D02*
G37*
G36*
X1255522D02*
X1253650D01*
X1254399Y493162D01*
X1255522Y492411D01*
Y494284D01*
D02*
G37*
G36*
X1250283D02*
X1248410D01*
Y492411D01*
X1249532Y493162D01*
X1250283Y494284D01*
D02*
G37*
G36*
X1243330D02*
X1241458D01*
X1242207Y493162D01*
X1243330Y492411D01*
Y494284D01*
D02*
G37*
G36*
X1275428Y494030D02*
X1273556D01*
Y492158D01*
X1274678Y492907D01*
X1275428Y494030D01*
D02*
G37*
G36*
X1268476D02*
X1266603D01*
X1267354Y492907D01*
X1268476Y492158D01*
Y494030D01*
D02*
G37*
G36*
X1288891Y493776D02*
X1287018D01*
Y491903D01*
X1288141Y492654D01*
X1288891Y493776D01*
D02*
G37*
G36*
X1281938D02*
X1280065D01*
X1280815Y492654D01*
X1281938Y491903D01*
Y493776D01*
D02*
G37*
G36*
X1298194Y477371D02*
X1294507Y477008D01*
X1290961Y475932D01*
X1287693Y474186D01*
X1284829Y471835D01*
X1282478Y468971D01*
X1280732Y465703D01*
X1279656Y462157D01*
X1279293Y458470D01*
X1279656Y454783D01*
X1280732Y451237D01*
X1282478Y447969D01*
X1284829Y445105D01*
X1287693Y442754D01*
X1290961Y441008D01*
X1294507Y439932D01*
X1298194Y439569D01*
X1301881Y439932D01*
X1305427Y441008D01*
X1308695Y442754D01*
X1311559Y445105D01*
X1313910Y447969D01*
X1315656Y451237D01*
X1316732Y454783D01*
X1317095Y458470D01*
X1316732Y462157D01*
X1315656Y465703D01*
X1313910Y468971D01*
X1311559Y471835D01*
X1308695Y474186D01*
X1305427Y475932D01*
X1301881Y477008D01*
X1298194Y477371D01*
D02*
G37*
G36*
X1196594D02*
X1192907Y477008D01*
X1189361Y475932D01*
X1186093Y474186D01*
X1183229Y471835D01*
X1180878Y468971D01*
X1179132Y465703D01*
X1178056Y462157D01*
X1177693Y458470D01*
X1178056Y454783D01*
X1179132Y451237D01*
X1180878Y447969D01*
X1183229Y445105D01*
X1186093Y442754D01*
X1189361Y441008D01*
X1192907Y439932D01*
X1196594Y439569D01*
X1200281Y439932D01*
X1203827Y441008D01*
X1207095Y442754D01*
X1209959Y445105D01*
X1212310Y447969D01*
X1214056Y451237D01*
X1215132Y454783D01*
X1215495Y458470D01*
X1215132Y462157D01*
X1214056Y465703D01*
X1212310Y468971D01*
X1209959Y471835D01*
X1207095Y474186D01*
X1203827Y475932D01*
X1200281Y477008D01*
X1196594Y477371D01*
D02*
G37*
G36*
X1157224D02*
X1153537Y477008D01*
X1149991Y475932D01*
X1146723Y474186D01*
X1143859Y471835D01*
X1141508Y468971D01*
X1139762Y465703D01*
X1138686Y462157D01*
X1138323Y458470D01*
X1138686Y454783D01*
X1139762Y451237D01*
X1141508Y447969D01*
X1143859Y445105D01*
X1146723Y442754D01*
X1149991Y441008D01*
X1153537Y439932D01*
X1157224Y439569D01*
X1160911Y439932D01*
X1164457Y441008D01*
X1167725Y442754D01*
X1170589Y445105D01*
X1172940Y447969D01*
X1174686Y451237D01*
X1175762Y454783D01*
X1176125Y458470D01*
X1175762Y462157D01*
X1174686Y465703D01*
X1172940Y468971D01*
X1170589Y471835D01*
X1167725Y474186D01*
X1164457Y475932D01*
X1160911Y477008D01*
X1157224Y477371D01*
D02*
G37*
G36*
X1055624D02*
X1051937Y477008D01*
X1048391Y475932D01*
X1045123Y474186D01*
X1042259Y471835D01*
X1039908Y468971D01*
X1038162Y465703D01*
X1037086Y462157D01*
X1036723Y458470D01*
X1037086Y454783D01*
X1038162Y451237D01*
X1039908Y447969D01*
X1042259Y445105D01*
X1045123Y442754D01*
X1048391Y441008D01*
X1051937Y439932D01*
X1055624Y439569D01*
X1059311Y439932D01*
X1062857Y441008D01*
X1066125Y442754D01*
X1068989Y445105D01*
X1071340Y447969D01*
X1073086Y451237D01*
X1074162Y454783D01*
X1074525Y458470D01*
X1074162Y462157D01*
X1073086Y465703D01*
X1071340Y468971D01*
X1068989Y471835D01*
X1066125Y474186D01*
X1062857Y475932D01*
X1059311Y477008D01*
X1055624Y477371D01*
D02*
G37*
G36*
X1170328Y340200D02*
X1100328D01*
Y330200D01*
X1170328D01*
Y340200D01*
D02*
G37*
G36*
X1095248D02*
X1025248D01*
Y330200D01*
X1095248D01*
Y340200D01*
D02*
G37*
G36*
X1170328Y325120D02*
X1100328D01*
Y315120D01*
X1170328D01*
Y325120D01*
D02*
G37*
G36*
X1095248D02*
X1025248D01*
Y315120D01*
X1095248D01*
Y325120D01*
D02*
G37*
G36*
X1171702Y780637D02*
Y778764D01*
X1173575D01*
X1172824Y779886D01*
X1171702Y780637D01*
D02*
G37*
G36*
X1166622D02*
X1165499Y779886D01*
X1164750Y778764D01*
X1166622D01*
Y780637D01*
D02*
G37*
G36*
X1173575Y773684D02*
X1171702D01*
Y771812D01*
X1172824Y772561D01*
X1173575Y773684D01*
D02*
G37*
G36*
X1166622D02*
X1164750D01*
X1165499Y772561D01*
X1166622Y771812D01*
Y773684D01*
D02*
G37*
G36*
X1171702Y767682D02*
Y765810D01*
X1173575D01*
X1172824Y766933D01*
X1171702Y767682D01*
D02*
G37*
G36*
X1166622D02*
X1165499Y766933D01*
X1164750Y765810D01*
X1166622D01*
Y767682D01*
D02*
G37*
G36*
X1173575Y760730D02*
X1171702D01*
Y758857D01*
X1172824Y759607D01*
X1173575Y760730D01*
D02*
G37*
G36*
X1166622D02*
X1164750D01*
X1165499Y759607D01*
X1166622Y758857D01*
Y760730D01*
D02*
G37*
G36*
X1171702Y753712D02*
Y751840D01*
X1173575D01*
X1172824Y752962D01*
X1171702Y753712D01*
D02*
G37*
G36*
X1166622D02*
X1165499Y752962D01*
X1164750Y751840D01*
X1166622D01*
Y753712D01*
D02*
G37*
G36*
X1173575Y746760D02*
X1171702D01*
Y744887D01*
X1172824Y745638D01*
X1173575Y746760D01*
D02*
G37*
G36*
X1166622D02*
X1164750D01*
X1165499Y745638D01*
X1166622Y744887D01*
Y746760D01*
D02*
G37*
G36*
X1171702Y738219D02*
Y736346D01*
X1173575D01*
X1172824Y737468D01*
X1171702Y738219D01*
D02*
G37*
G36*
X1166622D02*
X1165499Y737468D01*
X1164750Y736346D01*
X1166622D01*
Y738219D01*
D02*
G37*
G36*
X1173575Y731266D02*
X1171702D01*
Y729393D01*
X1172824Y730144D01*
X1173575Y731266D01*
D02*
G37*
G36*
X1166622D02*
X1164750D01*
X1165499Y730144D01*
X1166622Y729393D01*
Y731266D01*
D02*
G37*
G36*
X1322324Y646428D02*
X1314824D01*
Y639928D01*
X1322324D01*
Y646428D01*
D02*
G37*
G36*
X1311148Y604869D02*
Y602996D01*
X1313020D01*
X1312271Y604118D01*
X1311148Y604869D01*
D02*
G37*
G36*
X1306068D02*
X1304946Y604118D01*
X1304196Y602996D01*
X1306068D01*
Y604869D01*
D02*
G37*
G36*
X1313020Y597916D02*
X1311148D01*
Y596044D01*
X1312271Y596794D01*
X1313020Y597916D01*
D02*
G37*
G36*
X1306068D02*
X1304196D01*
X1304946Y596794D01*
X1306068Y596044D01*
Y597916D01*
D02*
G37*
G36*
X1311148Y591152D02*
Y589280D01*
X1313020D01*
X1312271Y590402D01*
X1311148Y591152D01*
D02*
G37*
G36*
X1306068D02*
X1304946Y590402D01*
X1304196Y589280D01*
X1306068D01*
Y591152D01*
D02*
G37*
G36*
X1313020Y584200D02*
X1311148D01*
Y582327D01*
X1312271Y583078D01*
X1313020Y584200D01*
D02*
G37*
G36*
X1306068D02*
X1304196D01*
X1304946Y583078D01*
X1306068Y582327D01*
Y584200D01*
D02*
G37*
G36*
X1077351Y629920D02*
X1069594D01*
Y622163D01*
X1069806Y622191D01*
X1072370Y623253D01*
X1074571Y624943D01*
X1076261Y627145D01*
X1077323Y629709D01*
X1077351Y629920D01*
D02*
G37*
G36*
X1064514D02*
X1056757D01*
X1056785Y629709D01*
X1057847Y627145D01*
X1059537Y624943D01*
X1061739Y623253D01*
X1064303Y622191D01*
X1064514Y622163D01*
Y629920D01*
D02*
G37*
G36*
X1122680Y597610D02*
X1118430D01*
Y594360D01*
X1122680D01*
Y597610D01*
D02*
G37*
G36*
X1232154Y629506D02*
Y627634D01*
X1234026D01*
X1233277Y628756D01*
X1232154Y629506D01*
D02*
G37*
G36*
X1227074D02*
X1225952Y628756D01*
X1225201Y627634D01*
X1227074D01*
Y629506D01*
D02*
G37*
G36*
X1219295Y623062D02*
X1217422D01*
Y621189D01*
X1218544Y621940D01*
X1219295Y623062D01*
D02*
G37*
G36*
X1212342D02*
X1210470D01*
X1211219Y621940D01*
X1212342Y621189D01*
Y623062D01*
D02*
G37*
G36*
X1206888Y619246D02*
X1199388D01*
Y614246D01*
X1206888D01*
Y619246D01*
D02*
G37*
G36*
X1194308D02*
X1186808D01*
Y614246D01*
X1194308D01*
Y619246D01*
D02*
G37*
G36*
X1177798Y614816D02*
X1173988D01*
Y610244D01*
X1177798D01*
Y614816D01*
D02*
G37*
G36*
X1168908D02*
X1165098D01*
Y610244D01*
X1168908D01*
Y614816D01*
D02*
G37*
G36*
X1206888Y609166D02*
X1199388D01*
Y604166D01*
X1206888D01*
Y609166D01*
D02*
G37*
G36*
X1194308D02*
X1186808D01*
Y604166D01*
X1194308D01*
Y609166D01*
D02*
G37*
G36*
X1248119Y599389D02*
X1241527D01*
X1234936D01*
Y597891D01*
X1233929Y597256D01*
X1233666D01*
Y586638D01*
X1249389D01*
Y597256D01*
X1249126D01*
X1248119Y597891D01*
X1248119Y598526D01*
Y599389D01*
D02*
G37*
G36*
X1233678Y581246D02*
Y579374D01*
X1235551D01*
X1234800Y580496D01*
X1233678Y581246D01*
D02*
G37*
G36*
X1228598D02*
X1227476Y580496D01*
X1226725Y579374D01*
X1228598D01*
Y581246D01*
D02*
G37*
G36*
X1221232D02*
Y579374D01*
X1223104D01*
X1222355Y580496D01*
X1221232Y581246D01*
D02*
G37*
G36*
X1216152D02*
X1215030Y580496D01*
X1214279Y579374D01*
X1216152D01*
Y581246D01*
D02*
G37*
G36*
X1245616Y580898D02*
X1241044D01*
Y577088D01*
X1245616D01*
Y580898D01*
D02*
G37*
G36*
X1235551Y574294D02*
X1233678D01*
Y572421D01*
X1234800Y573172D01*
X1235551Y574294D01*
D02*
G37*
G36*
X1228598D02*
X1226725D01*
X1227476Y573172D01*
X1228598Y572421D01*
Y574294D01*
D02*
G37*
G36*
X1223104D02*
X1221232D01*
Y572421D01*
X1222355Y573172D01*
X1223104Y574294D01*
D02*
G37*
G36*
X1216152D02*
X1214279D01*
X1215030Y573172D01*
X1216152Y572421D01*
Y574294D01*
D02*
G37*
%LPD*%
D11*
X1324314Y818388D02*
X1324356Y818346D01*
X1253744Y686054D02*
X1277310Y709620D01*
X1253744Y685800D02*
Y686054D01*
X1086612Y578104D02*
X1087374Y577342D01*
Y521970D02*
Y577342D01*
X1266630Y641282D02*
Y657120D01*
X1262380Y637032D02*
X1266630Y641282D01*
X1176488Y637032D02*
X1262380D01*
X1241527Y611937D02*
X1249731D01*
X1294130Y656336D01*
Y669620D01*
X1086612Y578104D02*
X1088136Y579628D01*
X1326642Y508508D02*
X1336802Y518668D01*
Y666632D01*
X1324356Y679078D02*
X1336802Y666632D01*
X1277310Y709620D02*
X1294130D01*
X1269492Y789432D02*
X1269680Y789620D01*
X1294130D01*
X1289304Y564642D02*
X1312282D01*
X1263396D02*
X1289304D01*
Y595004D01*
X1196848Y564642D02*
X1263396D01*
Y574548D01*
X1312282Y564642D02*
X1324864Y577224D01*
X1313434Y724544D02*
Y765810D01*
X1309624Y769620D02*
X1313434Y765810D01*
X1294130Y769620D02*
X1309624D01*
X1324356Y696078D02*
Y713622D01*
X1313434Y724544D02*
X1324356Y713622D01*
X1309614Y689620D02*
X1314196Y685038D01*
Y656590D02*
Y685038D01*
X1289304Y631698D02*
X1314196Y656590D01*
X1294130Y689620D02*
X1309614D01*
X1083564Y756158D02*
X1097026Y769620D01*
X1083564Y674370D02*
Y756158D01*
X1067054Y657860D02*
X1083564Y674370D01*
X1100276Y835548D02*
X1100582D01*
X1324558Y861720D02*
X1324610D01*
X1324356Y765810D02*
Y784488D01*
X1294130Y809620D02*
X1312042D01*
X1125220Y608820D02*
X1148276D01*
X1148276Y608820D01*
X1312042Y809620D02*
X1313942Y807720D01*
Y794902D02*
Y807720D01*
Y794902D02*
X1324356Y784488D01*
X1323442Y880720D02*
X1324610D01*
X1226630Y657120D02*
Y809180D01*
X1215390Y820420D02*
X1226630Y809180D01*
X1121918Y820420D02*
X1215390D01*
X1100582Y880720D02*
X1112164D01*
X1117092Y825246D02*
X1121918Y820420D01*
X1117092Y825246D02*
Y875792D01*
X1112164Y880720D02*
X1117092Y875792D01*
X1103442Y749620D02*
X1139130D01*
X1093978Y740156D02*
X1103442Y749620D01*
X1093978Y654812D02*
Y740156D01*
X1084580Y645414D02*
X1093978Y654812D01*
X1054354Y645414D02*
X1084580D01*
X1041908Y657860D02*
X1054354Y645414D01*
X1041654Y657860D02*
X1041908D01*
X1097026Y769620D02*
X1139130D01*
X1252474Y801878D02*
X1260216Y809620D01*
X1252474Y708914D02*
Y801878D01*
X1260216Y809620D02*
X1294130D01*
X1262954Y749620D02*
X1294130D01*
X1262888Y749554D02*
X1262954Y749620D01*
X1262766Y729620D02*
X1294130D01*
X1262634Y729488D02*
X1262766Y729620D01*
X1100276Y789822D02*
Y818548D01*
X1100074Y789620D02*
X1100276Y789822D01*
X1324356Y801488D02*
Y818346D01*
X1246630Y657120D02*
Y809242D01*
X1257554Y820166D02*
X1307084D01*
X1312672Y825754D01*
X1246630Y809242D02*
X1257554Y820166D01*
X1312672Y869950D02*
X1323442Y880720D01*
X1312672Y825754D02*
Y869950D01*
X1100276Y818548D02*
X1112106D01*
X1112266Y818388D01*
X1313688D02*
X1324314D01*
X1148276Y608820D02*
X1176488Y637032D01*
X1221740Y612004D02*
X1241460D01*
X1241527Y611937D01*
X1270533D02*
X1289237D01*
X1289304Y612004D01*
Y631698D01*
X1263179Y574765D02*
X1263396Y574548D01*
X1263179Y574765D02*
Y599477D01*
X1265936Y602234D01*
X1270228D01*
X1270533Y601929D01*
X1215942Y589206D02*
X1221740Y595004D01*
X1196848Y589206D02*
X1215942D01*
X1324864Y594224D02*
Y618388D01*
X1324558Y835548D02*
Y861720D01*
X1100582Y835548D02*
Y861720D01*
D18*
X1294130Y709620D02*
D03*
Y689620D02*
D03*
X1139130Y669620D02*
D03*
X1294130Y769620D02*
D03*
Y789620D02*
D03*
Y809620D02*
D03*
Y729620D02*
D03*
Y749620D02*
D03*
X1139130Y729620D02*
D03*
Y689620D02*
D03*
Y709620D02*
D03*
X1294130Y669620D02*
D03*
X1139130Y749620D02*
D03*
Y769620D02*
D03*
Y789620D02*
D03*
Y809620D02*
D03*
D19*
X1166630Y657120D02*
D03*
X1186630D02*
D03*
X1206630D02*
D03*
X1266630D02*
D03*
X1246630D02*
D03*
X1226630D02*
D03*
D20*
X1100582Y861720D02*
D03*
Y880720D02*
D03*
X1324610Y861720D02*
D03*
Y880720D02*
D03*
X1324864Y618388D02*
D03*
Y637388D02*
D03*
D21*
X1248156Y574548D02*
D03*
X1263396D02*
D03*
D22*
X1289304Y612004D02*
D03*
Y595004D02*
D03*
X1221740Y612004D02*
D03*
Y595004D02*
D03*
X1324356Y784488D02*
D03*
Y801488D02*
D03*
Y679078D02*
D03*
Y696078D02*
D03*
Y713622D02*
D03*
Y730622D02*
D03*
X1324864Y594224D02*
D03*
Y577224D02*
D03*
X1324558Y818548D02*
D03*
Y835548D02*
D03*
X1100276Y818548D02*
D03*
Y835548D02*
D03*
X1125220Y591820D02*
D03*
Y608820D02*
D03*
X1148276Y608820D02*
D03*
Y591820D02*
D03*
D23*
X1196848Y589206D02*
D03*
Y611706D02*
D03*
D24*
X1324356Y765810D02*
D03*
Y750570D02*
D03*
X1171448Y607704D02*
D03*
Y592464D02*
D03*
D25*
X1270533Y611937D02*
D03*
X1241527D02*
D03*
Y591947D02*
D03*
X1270533D02*
D03*
Y601929D02*
D03*
X1241527D02*
D03*
D40*
X1251966Y327406D02*
X1256030Y331470D01*
X1162812Y589206D02*
X1196848D01*
Y504952D02*
X1256030Y445770D01*
Y331470D02*
Y445770D01*
X1066038Y579628D02*
X1088136D01*
X1024128Y767080D02*
X1044702Y787654D01*
X1024128Y649986D02*
Y767080D01*
Y649986D02*
X1041654Y632460D01*
X1044702Y787654D02*
X1046668Y789620D01*
X1044702Y787654D02*
Y816864D01*
X1088136Y579628D02*
X1136084D01*
X1196848Y564642D02*
Y589206D01*
Y504952D02*
Y564642D01*
X1148276Y591820D02*
X1160198D01*
X1162812Y589206D01*
X1136084Y579628D02*
X1148276Y591820D01*
X1041654Y604012D02*
Y632460D01*
Y604012D02*
X1066038Y579628D01*
X1046668Y789620D02*
X1100074D01*
X1139130D01*
D41*
X1097788Y327660D02*
D03*
X1255776D02*
D03*
D42*
X1067054Y632460D02*
D03*
X1041654D02*
D03*
X1067054Y657860D02*
D03*
X1041654D02*
D03*
X1067054Y683260D02*
D03*
X1041654D02*
D03*
X1067054Y708660D02*
D03*
X1041654D02*
D03*
X1067054Y734060D02*
D03*
X1041654D02*
D03*
X1138174Y521970D02*
D03*
X1125474Y547370D02*
D03*
X1112774Y521970D02*
D03*
X1100074Y547370D02*
D03*
X1087374Y521970D02*
D03*
X1074674Y547370D02*
D03*
X1279144Y521970D02*
D03*
X1266444Y547370D02*
D03*
X1253744Y521970D02*
D03*
X1241044Y547370D02*
D03*
X1228344Y521970D02*
D03*
X1215644Y547370D02*
D03*
X1044702Y862076D02*
D03*
X1019302D02*
D03*
D43*
X1044702Y816864D02*
D03*
D44*
X1019302D02*
D03*
D45*
X1070102Y862076D02*
D03*
D46*
X1253744Y685800D02*
D03*
X1067562Y814070D02*
D03*
Y800862D02*
D03*
X1059688Y883666D02*
D03*
X1036320Y884174D02*
D03*
X1031494Y838708D02*
D03*
X1229614Y625094D02*
D03*
X1214882Y625602D02*
D03*
X1326642Y508508D02*
D03*
X1269492Y789432D02*
D03*
X1338580Y743458D02*
D03*
X1252474Y708914D02*
D03*
X1262888Y749554D02*
D03*
X1262634Y729488D02*
D03*
X1112266Y818388D02*
D03*
X1313688D02*
D03*
X1169162Y776224D02*
D03*
Y763270D02*
D03*
Y749300D02*
D03*
Y733806D02*
D03*
X1338580Y757428D02*
D03*
Y773938D02*
D03*
X1308608Y600456D02*
D03*
Y586740D02*
D03*
X1218692Y576834D02*
D03*
X1231138D02*
D03*
X1245870Y496824D02*
D03*
X1258062D02*
D03*
X1271016Y496570D02*
D03*
X1284478Y496316D02*
D03*
D47*
X1157224Y458470D02*
D03*
X1055624D02*
D03*
X1298194D02*
D03*
X1196594D02*
D03*
M02*
